G04 (created by PCBNEW-RS274X (2012-01-19 BZR 3256)-stable) date 5/11/2012 7:46:45 PM*
G01*
G70*
G90*
%MOIN*%
G04 Gerber Fmt 3.4, Leading zero omitted, Abs format*
%FSLAX34Y34*%
G04 APERTURE LIST*
%ADD10C,0.006000*%
%ADD11C,0.015000*%
%ADD12C,0.005900*%
%ADD13C,0.007900*%
%ADD14O,0.059400X0.073100*%
%ADD15O,0.073100X0.059400*%
%ADD16R,0.063300X0.043600*%
%ADD17O,0.063300X0.043600*%
%ADD18R,0.148000X0.043600*%
%ADD19R,0.088000X0.088000*%
%ADD20C,0.088000*%
%ADD21R,0.090900X0.063300*%
%ADD22R,0.216900X0.098700*%
%ADD23C,0.098700*%
%ADD24R,0.110600X0.039700*%
%ADD25R,0.118400X0.098700*%
%ADD26C,0.055400*%
G04 APERTURE END LIST*
G54D10*
G54D11*
X53950Y-35350D02*
X54050Y-35250D01*
X53950Y-35150D02*
X53950Y-35350D01*
X54050Y-35250D02*
X53950Y-35150D01*
X53850Y-35600D02*
X54200Y-35250D01*
X53850Y-34900D02*
X53850Y-35600D01*
X54200Y-35250D02*
X53850Y-34900D01*
X53750Y-35850D02*
X54350Y-35250D01*
X53750Y-34650D02*
X53750Y-35850D01*
X54350Y-35250D02*
X53750Y-34650D01*
G54D12*
X59091Y-28772D02*
X59485Y-28772D01*
X59485Y-28885D01*
X59466Y-28913D01*
X59447Y-28927D01*
X59409Y-28941D01*
X59353Y-28941D01*
X59316Y-28927D01*
X59297Y-28913D01*
X59278Y-28885D01*
X59278Y-28772D01*
X59091Y-29067D02*
X59485Y-29067D01*
X59128Y-29376D02*
X59109Y-29362D01*
X59091Y-29320D01*
X59091Y-29292D01*
X59109Y-29249D01*
X59147Y-29221D01*
X59184Y-29207D01*
X59259Y-29193D01*
X59316Y-29193D01*
X59391Y-29207D01*
X59428Y-29221D01*
X59466Y-29249D01*
X59485Y-29292D01*
X59485Y-29320D01*
X59466Y-29362D01*
X59447Y-29376D01*
X59091Y-29657D02*
X59091Y-29488D01*
X59091Y-29572D02*
X59485Y-29572D01*
X59428Y-29544D01*
X59391Y-29516D01*
X59372Y-29488D01*
X59316Y-29825D02*
X59334Y-29797D01*
X59353Y-29783D01*
X59391Y-29769D01*
X59409Y-29769D01*
X59447Y-29783D01*
X59466Y-29797D01*
X59485Y-29825D01*
X59485Y-29882D01*
X59466Y-29910D01*
X59447Y-29924D01*
X59409Y-29938D01*
X59391Y-29938D01*
X59353Y-29924D01*
X59334Y-29910D01*
X59316Y-29882D01*
X59316Y-29825D01*
X59297Y-29797D01*
X59278Y-29783D01*
X59241Y-29769D01*
X59166Y-29769D01*
X59128Y-29783D01*
X59109Y-29797D01*
X59091Y-29825D01*
X59091Y-29882D01*
X59109Y-29910D01*
X59128Y-29924D01*
X59166Y-29938D01*
X59241Y-29938D01*
X59278Y-29924D01*
X59297Y-29910D01*
X59316Y-29882D01*
X58940Y-30149D02*
X58959Y-30134D01*
X59015Y-30106D01*
X59053Y-30092D01*
X59109Y-30078D01*
X59203Y-30064D01*
X59278Y-30064D01*
X59372Y-30078D01*
X59428Y-30092D01*
X59466Y-30106D01*
X59522Y-30134D01*
X59541Y-30149D01*
X59091Y-30402D02*
X59091Y-30261D01*
X59485Y-30261D01*
X58940Y-30472D02*
X58959Y-30486D01*
X59015Y-30514D01*
X59053Y-30528D01*
X59109Y-30542D01*
X59203Y-30556D01*
X59278Y-30556D01*
X59372Y-30542D01*
X59428Y-30528D01*
X59466Y-30514D01*
X59522Y-30486D01*
X59541Y-30472D01*
X59297Y-30796D02*
X59297Y-30697D01*
X59091Y-30697D02*
X59485Y-30697D01*
X59485Y-30838D01*
X59091Y-31105D02*
X59091Y-30936D01*
X59091Y-31020D02*
X59485Y-31020D01*
X59428Y-30992D01*
X59391Y-30964D01*
X59372Y-30936D01*
X59485Y-31203D02*
X59091Y-31400D01*
X59485Y-31400D02*
X59091Y-31203D01*
X59091Y-31512D02*
X59485Y-31512D01*
X59091Y-31681D02*
X59316Y-31554D01*
X59485Y-31681D02*
X59259Y-31512D01*
X59485Y-31948D02*
X59485Y-31807D01*
X59297Y-31793D01*
X59316Y-31807D01*
X59334Y-31835D01*
X59334Y-31906D01*
X59316Y-31934D01*
X59297Y-31948D01*
X59259Y-31962D01*
X59166Y-31962D01*
X59128Y-31948D01*
X59109Y-31934D01*
X59091Y-31906D01*
X59091Y-31835D01*
X59109Y-31807D01*
X59128Y-31793D01*
X59485Y-32144D02*
X59485Y-32173D01*
X59466Y-32201D01*
X59447Y-32215D01*
X59409Y-32229D01*
X59334Y-32243D01*
X59241Y-32243D01*
X59166Y-32229D01*
X59128Y-32215D01*
X59109Y-32201D01*
X59091Y-32173D01*
X59091Y-32144D01*
X59109Y-32116D01*
X59128Y-32102D01*
X59166Y-32088D01*
X59241Y-32074D01*
X59334Y-32074D01*
X59409Y-32088D01*
X59447Y-32102D01*
X59466Y-32116D01*
X59485Y-32144D01*
X56791Y-27004D02*
X56978Y-26905D01*
X56791Y-26835D02*
X57185Y-26835D01*
X57185Y-26948D01*
X57166Y-26976D01*
X57147Y-26990D01*
X57109Y-27004D01*
X57053Y-27004D01*
X57016Y-26990D01*
X56997Y-26976D01*
X56978Y-26948D01*
X56978Y-26835D01*
X56997Y-27229D02*
X56978Y-27271D01*
X56959Y-27285D01*
X56922Y-27299D01*
X56866Y-27299D01*
X56828Y-27285D01*
X56809Y-27271D01*
X56791Y-27243D01*
X56791Y-27130D01*
X57185Y-27130D01*
X57185Y-27229D01*
X57166Y-27257D01*
X57147Y-27271D01*
X57109Y-27285D01*
X57072Y-27285D01*
X57034Y-27271D01*
X57016Y-27257D01*
X56997Y-27229D01*
X56997Y-27130D01*
X57185Y-27397D02*
X57185Y-27594D01*
X56791Y-27467D01*
X57791Y-27004D02*
X57978Y-26905D01*
X57791Y-26835D02*
X58185Y-26835D01*
X58185Y-26948D01*
X58166Y-26976D01*
X58147Y-26990D01*
X58109Y-27004D01*
X58053Y-27004D01*
X58016Y-26990D01*
X57997Y-26976D01*
X57978Y-26948D01*
X57978Y-26835D01*
X57828Y-27299D02*
X57809Y-27285D01*
X57791Y-27243D01*
X57791Y-27215D01*
X57809Y-27172D01*
X57847Y-27144D01*
X57884Y-27130D01*
X57959Y-27116D01*
X58016Y-27116D01*
X58091Y-27130D01*
X58128Y-27144D01*
X58166Y-27172D01*
X58185Y-27215D01*
X58185Y-27243D01*
X58166Y-27285D01*
X58147Y-27299D01*
X58185Y-27481D02*
X58185Y-27510D01*
X58166Y-27538D01*
X58147Y-27552D01*
X58109Y-27566D01*
X58034Y-27580D01*
X57941Y-27580D01*
X57866Y-27566D01*
X57828Y-27552D01*
X57809Y-27538D01*
X57791Y-27510D01*
X57791Y-27481D01*
X57809Y-27453D01*
X57828Y-27439D01*
X57866Y-27425D01*
X57941Y-27411D01*
X58034Y-27411D01*
X58109Y-27425D01*
X58147Y-27439D01*
X58166Y-27453D01*
X58185Y-27481D01*
X58791Y-27004D02*
X58978Y-26905D01*
X58791Y-26835D02*
X59185Y-26835D01*
X59185Y-26948D01*
X59166Y-26976D01*
X59147Y-26990D01*
X59109Y-27004D01*
X59053Y-27004D01*
X59016Y-26990D01*
X58997Y-26976D01*
X58978Y-26948D01*
X58978Y-26835D01*
X58828Y-27299D02*
X58809Y-27285D01*
X58791Y-27243D01*
X58791Y-27215D01*
X58809Y-27172D01*
X58847Y-27144D01*
X58884Y-27130D01*
X58959Y-27116D01*
X59016Y-27116D01*
X59091Y-27130D01*
X59128Y-27144D01*
X59166Y-27172D01*
X59185Y-27215D01*
X59185Y-27243D01*
X59166Y-27285D01*
X59147Y-27299D01*
X58791Y-27580D02*
X58791Y-27411D01*
X58791Y-27495D02*
X59185Y-27495D01*
X59128Y-27467D01*
X59091Y-27439D01*
X59072Y-27411D01*
X59791Y-27004D02*
X59978Y-26905D01*
X59791Y-26835D02*
X60185Y-26835D01*
X60185Y-26948D01*
X60166Y-26976D01*
X60147Y-26990D01*
X60109Y-27004D01*
X60053Y-27004D01*
X60016Y-26990D01*
X59997Y-26976D01*
X59978Y-26948D01*
X59978Y-26835D01*
X59828Y-27299D02*
X59809Y-27285D01*
X59791Y-27243D01*
X59791Y-27215D01*
X59809Y-27172D01*
X59847Y-27144D01*
X59884Y-27130D01*
X59959Y-27116D01*
X60016Y-27116D01*
X60091Y-27130D01*
X60128Y-27144D01*
X60166Y-27172D01*
X60185Y-27215D01*
X60185Y-27243D01*
X60166Y-27285D01*
X60147Y-27299D01*
X60147Y-27411D02*
X60166Y-27425D01*
X60185Y-27453D01*
X60185Y-27524D01*
X60166Y-27552D01*
X60147Y-27566D01*
X60109Y-27580D01*
X60072Y-27580D01*
X60016Y-27566D01*
X59791Y-27397D01*
X59791Y-27580D01*
X60791Y-27004D02*
X60978Y-26905D01*
X60791Y-26835D02*
X61185Y-26835D01*
X61185Y-26948D01*
X61166Y-26976D01*
X61147Y-26990D01*
X61109Y-27004D01*
X61053Y-27004D01*
X61016Y-26990D01*
X60997Y-26976D01*
X60978Y-26948D01*
X60978Y-26835D01*
X60828Y-27299D02*
X60809Y-27285D01*
X60791Y-27243D01*
X60791Y-27215D01*
X60809Y-27172D01*
X60847Y-27144D01*
X60884Y-27130D01*
X60959Y-27116D01*
X61016Y-27116D01*
X61091Y-27130D01*
X61128Y-27144D01*
X61166Y-27172D01*
X61185Y-27215D01*
X61185Y-27243D01*
X61166Y-27285D01*
X61147Y-27299D01*
X61185Y-27397D02*
X61185Y-27580D01*
X61034Y-27481D01*
X61034Y-27524D01*
X61016Y-27552D01*
X60997Y-27566D01*
X60959Y-27580D01*
X60866Y-27580D01*
X60828Y-27566D01*
X60809Y-27552D01*
X60791Y-27524D01*
X60791Y-27439D01*
X60809Y-27411D01*
X60828Y-27397D01*
X61791Y-27004D02*
X61978Y-26905D01*
X61791Y-26835D02*
X62185Y-26835D01*
X62185Y-26948D01*
X62166Y-26976D01*
X62147Y-26990D01*
X62109Y-27004D01*
X62053Y-27004D01*
X62016Y-26990D01*
X61997Y-26976D01*
X61978Y-26948D01*
X61978Y-26835D01*
X61828Y-27299D02*
X61809Y-27285D01*
X61791Y-27243D01*
X61791Y-27215D01*
X61809Y-27172D01*
X61847Y-27144D01*
X61884Y-27130D01*
X61959Y-27116D01*
X62016Y-27116D01*
X62091Y-27130D01*
X62128Y-27144D01*
X62166Y-27172D01*
X62185Y-27215D01*
X62185Y-27243D01*
X62166Y-27285D01*
X62147Y-27299D01*
X62053Y-27552D02*
X61791Y-27552D01*
X62203Y-27481D02*
X61922Y-27411D01*
X61922Y-27594D01*
X62791Y-27004D02*
X62978Y-26905D01*
X62791Y-26835D02*
X63185Y-26835D01*
X63185Y-26948D01*
X63166Y-26976D01*
X63147Y-26990D01*
X63109Y-27004D01*
X63053Y-27004D01*
X63016Y-26990D01*
X62997Y-26976D01*
X62978Y-26948D01*
X62978Y-26835D01*
X62828Y-27299D02*
X62809Y-27285D01*
X62791Y-27243D01*
X62791Y-27215D01*
X62809Y-27172D01*
X62847Y-27144D01*
X62884Y-27130D01*
X62959Y-27116D01*
X63016Y-27116D01*
X63091Y-27130D01*
X63128Y-27144D01*
X63166Y-27172D01*
X63185Y-27215D01*
X63185Y-27243D01*
X63166Y-27285D01*
X63147Y-27299D01*
X63185Y-27566D02*
X63185Y-27425D01*
X62997Y-27411D01*
X63016Y-27425D01*
X63034Y-27453D01*
X63034Y-27524D01*
X63016Y-27552D01*
X62997Y-27566D01*
X62959Y-27580D01*
X62866Y-27580D01*
X62828Y-27566D01*
X62809Y-27552D01*
X62791Y-27524D01*
X62791Y-27453D01*
X62809Y-27425D01*
X62828Y-27411D01*
X63841Y-27004D02*
X64028Y-26905D01*
X63841Y-26835D02*
X64235Y-26835D01*
X64235Y-26948D01*
X64216Y-26976D01*
X64197Y-26990D01*
X64159Y-27004D01*
X64103Y-27004D01*
X64066Y-26990D01*
X64047Y-26976D01*
X64028Y-26948D01*
X64028Y-26835D01*
X63878Y-27299D02*
X63859Y-27285D01*
X63841Y-27243D01*
X63841Y-27215D01*
X63859Y-27172D01*
X63897Y-27144D01*
X63934Y-27130D01*
X64009Y-27116D01*
X64066Y-27116D01*
X64141Y-27130D01*
X64178Y-27144D01*
X64216Y-27172D01*
X64235Y-27215D01*
X64235Y-27243D01*
X64216Y-27285D01*
X64197Y-27299D01*
X64235Y-27552D02*
X64235Y-27495D01*
X64216Y-27467D01*
X64197Y-27453D01*
X64141Y-27425D01*
X64066Y-27411D01*
X63916Y-27411D01*
X63878Y-27425D01*
X63859Y-27439D01*
X63841Y-27467D01*
X63841Y-27524D01*
X63859Y-27552D01*
X63878Y-27566D01*
X63916Y-27580D01*
X64009Y-27580D01*
X64047Y-27566D01*
X64066Y-27552D01*
X64084Y-27524D01*
X64084Y-27467D01*
X64066Y-27439D01*
X64047Y-27425D01*
X64009Y-27411D01*
X64791Y-27004D02*
X64978Y-26905D01*
X64791Y-26835D02*
X65185Y-26835D01*
X65185Y-26948D01*
X65166Y-26976D01*
X65147Y-26990D01*
X65109Y-27004D01*
X65053Y-27004D01*
X65016Y-26990D01*
X64997Y-26976D01*
X64978Y-26948D01*
X64978Y-26835D01*
X64828Y-27299D02*
X64809Y-27285D01*
X64791Y-27243D01*
X64791Y-27215D01*
X64809Y-27172D01*
X64847Y-27144D01*
X64884Y-27130D01*
X64959Y-27116D01*
X65016Y-27116D01*
X65091Y-27130D01*
X65128Y-27144D01*
X65166Y-27172D01*
X65185Y-27215D01*
X65185Y-27243D01*
X65166Y-27285D01*
X65147Y-27299D01*
X65185Y-27397D02*
X65185Y-27594D01*
X64791Y-27467D01*
X67285Y-26819D02*
X66891Y-26917D01*
X67285Y-27016D01*
X67041Y-27114D02*
X67041Y-27339D01*
X65791Y-27022D02*
X65978Y-26923D01*
X65791Y-26853D02*
X66185Y-26853D01*
X66185Y-26966D01*
X66166Y-26994D01*
X66147Y-27008D01*
X66109Y-27022D01*
X66053Y-27022D01*
X66016Y-27008D01*
X65997Y-26994D01*
X65978Y-26966D01*
X65978Y-26853D01*
X65997Y-27148D02*
X65997Y-27247D01*
X65791Y-27289D02*
X65791Y-27148D01*
X66185Y-27148D01*
X66185Y-27289D01*
X65809Y-27401D02*
X65791Y-27443D01*
X65791Y-27514D01*
X65809Y-27542D01*
X65828Y-27556D01*
X65866Y-27570D01*
X65903Y-27570D01*
X65941Y-27556D01*
X65959Y-27542D01*
X65978Y-27514D01*
X65997Y-27457D01*
X66016Y-27429D01*
X66034Y-27415D01*
X66072Y-27401D01*
X66109Y-27401D01*
X66147Y-27415D01*
X66166Y-27429D01*
X66185Y-27457D01*
X66185Y-27528D01*
X66166Y-27570D01*
X65997Y-27696D02*
X65997Y-27795D01*
X65791Y-27837D02*
X65791Y-27696D01*
X66185Y-27696D01*
X66185Y-27837D01*
X66185Y-27921D02*
X66185Y-28090D01*
X65791Y-28005D02*
X66185Y-28005D01*
X66329Y-26783D02*
X66329Y-28118D01*
X55791Y-27004D02*
X55978Y-26905D01*
X55791Y-26835D02*
X56185Y-26835D01*
X56185Y-26948D01*
X56166Y-26976D01*
X56147Y-26990D01*
X56109Y-27004D01*
X56053Y-27004D01*
X56016Y-26990D01*
X55997Y-26976D01*
X55978Y-26948D01*
X55978Y-26835D01*
X55997Y-27229D02*
X55978Y-27271D01*
X55959Y-27285D01*
X55922Y-27299D01*
X55866Y-27299D01*
X55828Y-27285D01*
X55809Y-27271D01*
X55791Y-27243D01*
X55791Y-27130D01*
X56185Y-27130D01*
X56185Y-27229D01*
X56166Y-27257D01*
X56147Y-27271D01*
X56109Y-27285D01*
X56072Y-27285D01*
X56034Y-27271D01*
X56016Y-27257D01*
X55997Y-27229D01*
X55997Y-27130D01*
X56185Y-27552D02*
X56185Y-27495D01*
X56166Y-27467D01*
X56147Y-27453D01*
X56091Y-27425D01*
X56016Y-27411D01*
X55866Y-27411D01*
X55828Y-27425D01*
X55809Y-27439D01*
X55791Y-27467D01*
X55791Y-27524D01*
X55809Y-27552D01*
X55828Y-27566D01*
X55866Y-27580D01*
X55959Y-27580D01*
X55997Y-27566D01*
X56016Y-27552D01*
X56034Y-27524D01*
X56034Y-27467D01*
X56016Y-27439D01*
X55997Y-27425D01*
X55959Y-27411D01*
X54791Y-27004D02*
X54978Y-26905D01*
X54791Y-26835D02*
X55185Y-26835D01*
X55185Y-26948D01*
X55166Y-26976D01*
X55147Y-26990D01*
X55109Y-27004D01*
X55053Y-27004D01*
X55016Y-26990D01*
X54997Y-26976D01*
X54978Y-26948D01*
X54978Y-26835D01*
X54997Y-27229D02*
X54978Y-27271D01*
X54959Y-27285D01*
X54922Y-27299D01*
X54866Y-27299D01*
X54828Y-27285D01*
X54809Y-27271D01*
X54791Y-27243D01*
X54791Y-27130D01*
X55185Y-27130D01*
X55185Y-27229D01*
X55166Y-27257D01*
X55147Y-27271D01*
X55109Y-27285D01*
X55072Y-27285D01*
X55034Y-27271D01*
X55016Y-27257D01*
X54997Y-27229D01*
X54997Y-27130D01*
X55185Y-27566D02*
X55185Y-27425D01*
X54997Y-27411D01*
X55016Y-27425D01*
X55034Y-27453D01*
X55034Y-27524D01*
X55016Y-27552D01*
X54997Y-27566D01*
X54959Y-27580D01*
X54866Y-27580D01*
X54828Y-27566D01*
X54809Y-27552D01*
X54791Y-27524D01*
X54791Y-27453D01*
X54809Y-27425D01*
X54828Y-27411D01*
X53791Y-27004D02*
X53978Y-26905D01*
X53791Y-26835D02*
X54185Y-26835D01*
X54185Y-26948D01*
X54166Y-26976D01*
X54147Y-26990D01*
X54109Y-27004D01*
X54053Y-27004D01*
X54016Y-26990D01*
X53997Y-26976D01*
X53978Y-26948D01*
X53978Y-26835D01*
X53997Y-27229D02*
X53978Y-27271D01*
X53959Y-27285D01*
X53922Y-27299D01*
X53866Y-27299D01*
X53828Y-27285D01*
X53809Y-27271D01*
X53791Y-27243D01*
X53791Y-27130D01*
X54185Y-27130D01*
X54185Y-27229D01*
X54166Y-27257D01*
X54147Y-27271D01*
X54109Y-27285D01*
X54072Y-27285D01*
X54034Y-27271D01*
X54016Y-27257D01*
X53997Y-27229D01*
X53997Y-27130D01*
X54053Y-27552D02*
X53791Y-27552D01*
X54203Y-27481D02*
X53922Y-27411D01*
X53922Y-27594D01*
X53285Y-26819D02*
X52891Y-26917D01*
X53285Y-27016D01*
X53041Y-27114D02*
X53041Y-27339D01*
X52891Y-27227D02*
X53191Y-27227D01*
X51944Y-26265D02*
X51803Y-26265D01*
X51789Y-26453D01*
X51803Y-26434D01*
X51831Y-26416D01*
X51902Y-26416D01*
X51930Y-26434D01*
X51944Y-26453D01*
X51958Y-26491D01*
X51958Y-26584D01*
X51944Y-26622D01*
X51930Y-26641D01*
X51902Y-26659D01*
X51831Y-26659D01*
X51803Y-26641D01*
X51789Y-26622D01*
X52042Y-26265D02*
X52140Y-26659D01*
X52239Y-26265D01*
X50635Y-26265D02*
X50818Y-26265D01*
X50719Y-26416D01*
X50762Y-26416D01*
X50790Y-26434D01*
X50804Y-26453D01*
X50818Y-26491D01*
X50818Y-26584D01*
X50804Y-26622D01*
X50790Y-26641D01*
X50762Y-26659D01*
X50677Y-26659D01*
X50649Y-26641D01*
X50635Y-26622D01*
X50902Y-26265D02*
X51000Y-26659D01*
X51099Y-26265D01*
X51169Y-26265D02*
X51352Y-26265D01*
X51253Y-26416D01*
X51296Y-26416D01*
X51324Y-26434D01*
X51338Y-26453D01*
X51352Y-26491D01*
X51352Y-26584D01*
X51338Y-26622D01*
X51324Y-26641D01*
X51296Y-26659D01*
X51211Y-26659D01*
X51183Y-26641D01*
X51169Y-26622D01*
X65050Y-36059D02*
X64951Y-35872D01*
X64881Y-36059D02*
X64881Y-35665D01*
X64994Y-35665D01*
X65022Y-35684D01*
X65036Y-35703D01*
X65050Y-35741D01*
X65050Y-35797D01*
X65036Y-35834D01*
X65022Y-35853D01*
X64994Y-35872D01*
X64881Y-35872D01*
X65289Y-36041D02*
X65261Y-36059D01*
X65204Y-36059D01*
X65176Y-36041D01*
X65162Y-36003D01*
X65162Y-35853D01*
X65176Y-35816D01*
X65204Y-35797D01*
X65261Y-35797D01*
X65289Y-35816D01*
X65303Y-35853D01*
X65303Y-35891D01*
X65162Y-35928D01*
X65401Y-35797D02*
X65471Y-36059D01*
X65542Y-35797D01*
X65865Y-35703D02*
X65879Y-35684D01*
X65907Y-35665D01*
X65978Y-35665D01*
X66006Y-35684D01*
X66020Y-35703D01*
X66034Y-35741D01*
X66034Y-35778D01*
X66020Y-35834D01*
X65851Y-36059D01*
X66034Y-36059D01*
X63736Y-34859D02*
X63736Y-34465D01*
X63849Y-34465D01*
X63877Y-34484D01*
X63891Y-34503D01*
X63905Y-34541D01*
X63905Y-34597D01*
X63891Y-34634D01*
X63877Y-34653D01*
X63849Y-34672D01*
X63736Y-34672D01*
X64031Y-34859D02*
X64031Y-34597D01*
X64031Y-34672D02*
X64045Y-34634D01*
X64059Y-34616D01*
X64087Y-34597D01*
X64116Y-34597D01*
X64256Y-34859D02*
X64228Y-34841D01*
X64214Y-34822D01*
X64200Y-34784D01*
X64200Y-34672D01*
X64214Y-34634D01*
X64228Y-34616D01*
X64256Y-34597D01*
X64299Y-34597D01*
X64327Y-34616D01*
X64341Y-34634D01*
X64355Y-34672D01*
X64355Y-34784D01*
X64341Y-34822D01*
X64327Y-34841D01*
X64299Y-34859D01*
X64256Y-34859D01*
X64439Y-34597D02*
X64551Y-34597D01*
X64481Y-34465D02*
X64481Y-34803D01*
X64495Y-34841D01*
X64523Y-34859D01*
X64551Y-34859D01*
X64692Y-34859D02*
X64664Y-34841D01*
X64650Y-34822D01*
X64636Y-34784D01*
X64636Y-34672D01*
X64650Y-34634D01*
X64664Y-34616D01*
X64692Y-34597D01*
X64735Y-34597D01*
X64763Y-34616D01*
X64777Y-34634D01*
X64791Y-34672D01*
X64791Y-34784D01*
X64777Y-34822D01*
X64763Y-34841D01*
X64735Y-34859D01*
X64692Y-34859D01*
X64917Y-34709D02*
X65142Y-34709D01*
X65381Y-34653D02*
X65423Y-34672D01*
X65437Y-34691D01*
X65451Y-34728D01*
X65451Y-34784D01*
X65437Y-34822D01*
X65423Y-34841D01*
X65395Y-34859D01*
X65282Y-34859D01*
X65282Y-34465D01*
X65381Y-34465D01*
X65409Y-34484D01*
X65423Y-34503D01*
X65437Y-34541D01*
X65437Y-34578D01*
X65423Y-34616D01*
X65409Y-34634D01*
X65381Y-34653D01*
X65282Y-34653D01*
X65619Y-34859D02*
X65591Y-34841D01*
X65577Y-34822D01*
X65563Y-34784D01*
X65563Y-34672D01*
X65577Y-34634D01*
X65591Y-34616D01*
X65619Y-34597D01*
X65662Y-34597D01*
X65690Y-34616D01*
X65704Y-34634D01*
X65718Y-34672D01*
X65718Y-34784D01*
X65704Y-34822D01*
X65690Y-34841D01*
X65662Y-34859D01*
X65619Y-34859D01*
X65971Y-34859D02*
X65971Y-34653D01*
X65957Y-34616D01*
X65929Y-34597D01*
X65872Y-34597D01*
X65844Y-34616D01*
X65971Y-34841D02*
X65943Y-34859D01*
X65872Y-34859D01*
X65844Y-34841D01*
X65830Y-34803D01*
X65830Y-34766D01*
X65844Y-34728D01*
X65872Y-34709D01*
X65943Y-34709D01*
X65971Y-34691D01*
X66111Y-34859D02*
X66111Y-34597D01*
X66111Y-34672D02*
X66125Y-34634D01*
X66139Y-34616D01*
X66167Y-34597D01*
X66196Y-34597D01*
X66421Y-34859D02*
X66421Y-34465D01*
X66421Y-34841D02*
X66393Y-34859D01*
X66336Y-34859D01*
X66308Y-34841D01*
X66294Y-34822D01*
X66280Y-34784D01*
X66280Y-34672D01*
X66294Y-34634D01*
X66308Y-34616D01*
X66336Y-34597D01*
X66393Y-34597D01*
X66421Y-34616D01*
X66744Y-34597D02*
X66856Y-34597D01*
X66786Y-34859D02*
X66786Y-34522D01*
X66800Y-34484D01*
X66828Y-34465D01*
X66856Y-34465D01*
X66997Y-34859D02*
X66969Y-34841D01*
X66955Y-34822D01*
X66941Y-34784D01*
X66941Y-34672D01*
X66955Y-34634D01*
X66969Y-34616D01*
X66997Y-34597D01*
X67040Y-34597D01*
X67068Y-34616D01*
X67082Y-34634D01*
X67096Y-34672D01*
X67096Y-34784D01*
X67082Y-34822D01*
X67068Y-34841D01*
X67040Y-34859D01*
X66997Y-34859D01*
X67222Y-34859D02*
X67222Y-34597D01*
X67222Y-34672D02*
X67236Y-34634D01*
X67250Y-34616D01*
X67278Y-34597D01*
X67307Y-34597D01*
X63772Y-35469D02*
X63772Y-35075D01*
X63885Y-35075D01*
X63913Y-35094D01*
X63927Y-35113D01*
X63941Y-35151D01*
X63941Y-35207D01*
X63927Y-35244D01*
X63913Y-35263D01*
X63885Y-35282D01*
X63772Y-35282D01*
X64067Y-35469D02*
X64067Y-35075D01*
X64376Y-35432D02*
X64362Y-35451D01*
X64320Y-35469D01*
X64292Y-35469D01*
X64249Y-35451D01*
X64221Y-35413D01*
X64207Y-35376D01*
X64193Y-35301D01*
X64193Y-35244D01*
X64207Y-35169D01*
X64221Y-35132D01*
X64249Y-35094D01*
X64292Y-35075D01*
X64320Y-35075D01*
X64362Y-35094D01*
X64376Y-35113D01*
X64657Y-35469D02*
X64488Y-35469D01*
X64572Y-35469D02*
X64572Y-35075D01*
X64544Y-35132D01*
X64516Y-35169D01*
X64488Y-35188D01*
X64825Y-35244D02*
X64797Y-35226D01*
X64783Y-35207D01*
X64769Y-35169D01*
X64769Y-35151D01*
X64783Y-35113D01*
X64797Y-35094D01*
X64825Y-35075D01*
X64882Y-35075D01*
X64910Y-35094D01*
X64924Y-35113D01*
X64938Y-35151D01*
X64938Y-35169D01*
X64924Y-35207D01*
X64910Y-35226D01*
X64882Y-35244D01*
X64825Y-35244D01*
X64797Y-35263D01*
X64783Y-35282D01*
X64769Y-35319D01*
X64769Y-35394D01*
X64783Y-35432D01*
X64797Y-35451D01*
X64825Y-35469D01*
X64882Y-35469D01*
X64910Y-35451D01*
X64924Y-35432D01*
X64938Y-35394D01*
X64938Y-35319D01*
X64924Y-35282D01*
X64910Y-35263D01*
X64882Y-35244D01*
X65149Y-35620D02*
X65134Y-35601D01*
X65106Y-35545D01*
X65092Y-35507D01*
X65078Y-35451D01*
X65064Y-35357D01*
X65064Y-35282D01*
X65078Y-35188D01*
X65092Y-35132D01*
X65106Y-35094D01*
X65134Y-35038D01*
X65149Y-35019D01*
X65402Y-35469D02*
X65261Y-35469D01*
X65261Y-35075D01*
X65472Y-35620D02*
X65486Y-35601D01*
X65514Y-35545D01*
X65528Y-35507D01*
X65542Y-35451D01*
X65556Y-35357D01*
X65556Y-35282D01*
X65542Y-35188D01*
X65528Y-35132D01*
X65514Y-35094D01*
X65486Y-35038D01*
X65472Y-35019D01*
X65796Y-35263D02*
X65697Y-35263D01*
X65697Y-35469D02*
X65697Y-35075D01*
X65838Y-35075D01*
X66105Y-35469D02*
X65936Y-35469D01*
X66020Y-35469D02*
X66020Y-35075D01*
X65992Y-35132D01*
X65964Y-35169D01*
X65936Y-35188D01*
X66203Y-35075D02*
X66400Y-35469D01*
X66400Y-35075D02*
X66203Y-35469D01*
X66512Y-35469D02*
X66512Y-35075D01*
X66681Y-35469D02*
X66554Y-35244D01*
X66681Y-35075D02*
X66512Y-35301D01*
X66948Y-35075D02*
X66807Y-35075D01*
X66793Y-35263D01*
X66807Y-35244D01*
X66835Y-35226D01*
X66906Y-35226D01*
X66934Y-35244D01*
X66948Y-35263D01*
X66962Y-35301D01*
X66962Y-35394D01*
X66948Y-35432D01*
X66934Y-35451D01*
X66906Y-35469D01*
X66835Y-35469D01*
X66807Y-35451D01*
X66793Y-35432D01*
X67144Y-35075D02*
X67173Y-35075D01*
X67201Y-35094D01*
X67215Y-35113D01*
X67229Y-35151D01*
X67243Y-35226D01*
X67243Y-35319D01*
X67229Y-35394D01*
X67215Y-35432D01*
X67201Y-35451D01*
X67173Y-35469D01*
X67144Y-35469D01*
X67116Y-35451D01*
X67102Y-35432D01*
X67088Y-35394D01*
X67074Y-35319D01*
X67074Y-35226D01*
X67088Y-35151D01*
X67102Y-35113D01*
X67116Y-35094D01*
X67144Y-35075D01*
G54D11*
X50158Y-33937D02*
X50167Y-34142D01*
X50194Y-34347D01*
X50239Y-34548D01*
X50301Y-34744D01*
X50380Y-34935D01*
X50475Y-35117D01*
X50586Y-35291D01*
X50711Y-35455D01*
X50850Y-35607D01*
X51002Y-35746D01*
X51166Y-35871D01*
X51340Y-35982D01*
X51522Y-36077D01*
X51713Y-36156D01*
X51909Y-36218D01*
X52110Y-36263D01*
X52315Y-36290D01*
X52520Y-36299D01*
X69843Y-26063D02*
X69843Y-33937D01*
X50157Y-33937D02*
X50157Y-26063D01*
X67480Y-36300D02*
X67685Y-36291D01*
X67890Y-36264D01*
X68091Y-36219D01*
X68288Y-36157D01*
X68478Y-36078D01*
X68661Y-35983D01*
X68835Y-35872D01*
X68998Y-35747D01*
X69150Y-35607D01*
X69290Y-35455D01*
X69415Y-35292D01*
X69526Y-35118D01*
X69621Y-34935D01*
X69700Y-34745D01*
X69762Y-34548D01*
X69807Y-34347D01*
X69834Y-34142D01*
X69843Y-33937D01*
X52520Y-23701D02*
X67480Y-23701D01*
X52520Y-36299D02*
X67480Y-36299D01*
X69842Y-26063D02*
X69833Y-25858D01*
X69806Y-25653D01*
X69761Y-25452D01*
X69699Y-25256D01*
X69620Y-25065D01*
X69525Y-24883D01*
X69414Y-24709D01*
X69289Y-24545D01*
X69150Y-24393D01*
X68998Y-24254D01*
X68834Y-24129D01*
X68661Y-24018D01*
X68478Y-23923D01*
X68287Y-23844D01*
X68091Y-23782D01*
X67890Y-23737D01*
X67685Y-23710D01*
X67480Y-23701D01*
X52520Y-23700D02*
X52315Y-23709D01*
X52110Y-23736D01*
X51909Y-23781D01*
X51712Y-23843D01*
X51522Y-23922D01*
X51339Y-24017D01*
X51165Y-24128D01*
X51002Y-24253D01*
X50850Y-24393D01*
X50710Y-24545D01*
X50585Y-24708D01*
X50474Y-24882D01*
X50379Y-25065D01*
X50300Y-25255D01*
X50238Y-25452D01*
X50193Y-25653D01*
X50166Y-25858D01*
X50157Y-26063D01*
G54D13*
X64567Y-31733D02*
X64567Y-32205D01*
X66142Y-32205D02*
X66142Y-31733D01*
X60350Y-33264D02*
X60350Y-33736D01*
X54724Y-28740D02*
X54252Y-28740D01*
X51220Y-28543D02*
X50748Y-28543D01*
G54D11*
X52657Y-27952D02*
X52657Y-29134D01*
X52657Y-29134D02*
X52067Y-29134D01*
X52067Y-29134D02*
X52067Y-27952D01*
X52067Y-27952D02*
X52657Y-27952D01*
X52559Y-29330D02*
X53149Y-29330D01*
X62106Y-33256D02*
X60925Y-33256D01*
X60846Y-33059D02*
X60846Y-27941D01*
X60846Y-27941D02*
X57854Y-27941D01*
X57854Y-27941D02*
X57854Y-33059D01*
X57854Y-33059D02*
X60846Y-33059D01*
X66076Y-30194D02*
X66076Y-29406D01*
X66706Y-28776D02*
X67494Y-28776D01*
X66076Y-29406D02*
X66706Y-28776D01*
X67494Y-28776D02*
X68124Y-29406D01*
X68124Y-29406D02*
X68124Y-30194D01*
X67494Y-29800D02*
X67486Y-29876D01*
X67464Y-29950D01*
X67428Y-30018D01*
X67379Y-30077D01*
X67320Y-30126D01*
X67252Y-30163D01*
X67179Y-30185D01*
X67102Y-30193D01*
X67027Y-30187D01*
X66953Y-30165D01*
X66885Y-30129D01*
X66825Y-30081D01*
X66775Y-30022D01*
X66738Y-29955D01*
X66715Y-29881D01*
X66707Y-29805D01*
X66713Y-29729D01*
X66734Y-29655D01*
X66769Y-29587D01*
X66817Y-29527D01*
X66876Y-29477D01*
X66943Y-29439D01*
X67016Y-29416D01*
X67092Y-29407D01*
X67168Y-29412D01*
X67242Y-29433D01*
X67311Y-29468D01*
X67371Y-29515D01*
X67421Y-29573D01*
X67459Y-29640D01*
X67484Y-29713D01*
X67493Y-29789D01*
X67494Y-29800D01*
X66706Y-30824D02*
X67494Y-30824D01*
X66706Y-30824D02*
X66076Y-30194D01*
X68124Y-30194D02*
X67494Y-30824D01*
G54D13*
X55197Y-32756D02*
X55197Y-33228D01*
X55197Y-33544D02*
X55197Y-34016D01*
X54252Y-30315D02*
X54724Y-30315D01*
X55827Y-31654D02*
X56299Y-31654D01*
X64664Y-29800D02*
X65136Y-29800D01*
G54D11*
X64055Y-32362D02*
X66653Y-32362D01*
X64055Y-34252D02*
X66653Y-34252D01*
X63110Y-33307D02*
X63114Y-33389D01*
X63125Y-33471D01*
X63143Y-33551D01*
X63167Y-33630D01*
X63199Y-33706D01*
X63237Y-33779D01*
X63281Y-33849D01*
X63332Y-33914D01*
X63387Y-33975D01*
X63448Y-34030D01*
X63513Y-34081D01*
X63583Y-34125D01*
X63656Y-34163D01*
X63732Y-34195D01*
X63811Y-34219D01*
X63891Y-34237D01*
X63973Y-34248D01*
X64055Y-34252D01*
X64055Y-32362D02*
X63973Y-32366D01*
X63891Y-32377D01*
X63811Y-32395D01*
X63732Y-32419D01*
X63656Y-32451D01*
X63583Y-32489D01*
X63513Y-32533D01*
X63448Y-32584D01*
X63387Y-32639D01*
X63332Y-32700D01*
X63281Y-32765D01*
X63237Y-32835D01*
X63199Y-32908D01*
X63167Y-32984D01*
X63143Y-33063D01*
X63125Y-33143D01*
X63114Y-33225D01*
X63110Y-33307D01*
X67598Y-33307D02*
X67594Y-33225D01*
X67583Y-33143D01*
X67565Y-33063D01*
X67541Y-32984D01*
X67509Y-32908D01*
X67471Y-32835D01*
X67427Y-32765D01*
X67376Y-32700D01*
X67321Y-32639D01*
X67260Y-32584D01*
X67195Y-32533D01*
X67125Y-32489D01*
X67052Y-32451D01*
X66976Y-32419D01*
X66897Y-32395D01*
X66817Y-32377D01*
X66735Y-32366D01*
X66653Y-32362D01*
X66653Y-34252D02*
X66735Y-34248D01*
X66817Y-34237D01*
X66897Y-34219D01*
X66976Y-34195D01*
X67052Y-34163D01*
X67125Y-34125D01*
X67195Y-34081D01*
X67260Y-34030D01*
X67321Y-33975D01*
X67376Y-33914D01*
X67427Y-33849D01*
X67471Y-33779D01*
X67509Y-33706D01*
X67541Y-33630D01*
X67565Y-33551D01*
X67583Y-33471D01*
X67594Y-33389D01*
X67598Y-33307D01*
X50150Y-30571D02*
X53418Y-30571D01*
X53418Y-30571D02*
X53418Y-33209D01*
X53418Y-33209D02*
X50150Y-33209D01*
G54D12*
X63765Y-31103D02*
X63779Y-31084D01*
X63807Y-31065D01*
X63878Y-31065D01*
X63906Y-31084D01*
X63920Y-31103D01*
X63934Y-31141D01*
X63934Y-31178D01*
X63920Y-31234D01*
X63751Y-31459D01*
X63934Y-31459D01*
X64046Y-31103D02*
X64060Y-31084D01*
X64088Y-31065D01*
X64159Y-31065D01*
X64187Y-31084D01*
X64201Y-31103D01*
X64215Y-31141D01*
X64215Y-31178D01*
X64201Y-31234D01*
X64032Y-31459D01*
X64215Y-31459D01*
X64341Y-31197D02*
X64341Y-31591D01*
X64341Y-31216D02*
X64369Y-31197D01*
X64426Y-31197D01*
X64454Y-31216D01*
X64468Y-31234D01*
X64482Y-31272D01*
X64482Y-31384D01*
X64468Y-31422D01*
X64454Y-31441D01*
X64426Y-31459D01*
X64369Y-31459D01*
X64341Y-31441D01*
X64707Y-31253D02*
X64608Y-31253D01*
X64608Y-31459D02*
X64608Y-31065D01*
X64749Y-31065D01*
X66065Y-31103D02*
X66079Y-31084D01*
X66107Y-31065D01*
X66178Y-31065D01*
X66206Y-31084D01*
X66220Y-31103D01*
X66234Y-31141D01*
X66234Y-31178D01*
X66220Y-31234D01*
X66051Y-31459D01*
X66234Y-31459D01*
X66346Y-31103D02*
X66360Y-31084D01*
X66388Y-31065D01*
X66459Y-31065D01*
X66487Y-31084D01*
X66501Y-31103D01*
X66515Y-31141D01*
X66515Y-31178D01*
X66501Y-31234D01*
X66332Y-31459D01*
X66515Y-31459D01*
X66641Y-31197D02*
X66641Y-31591D01*
X66641Y-31216D02*
X66669Y-31197D01*
X66726Y-31197D01*
X66754Y-31216D01*
X66768Y-31234D01*
X66782Y-31272D01*
X66782Y-31384D01*
X66768Y-31422D01*
X66754Y-31441D01*
X66726Y-31459D01*
X66669Y-31459D01*
X66641Y-31441D01*
X67007Y-31253D02*
X66908Y-31253D01*
X66908Y-31459D02*
X66908Y-31065D01*
X67049Y-31065D01*
X58575Y-33698D02*
X58406Y-33698D01*
X58490Y-33698D02*
X58490Y-33304D01*
X58462Y-33361D01*
X58434Y-33398D01*
X58406Y-33417D01*
X58757Y-33304D02*
X58786Y-33304D01*
X58814Y-33323D01*
X58828Y-33342D01*
X58842Y-33380D01*
X58856Y-33455D01*
X58856Y-33548D01*
X58842Y-33623D01*
X58828Y-33661D01*
X58814Y-33680D01*
X58786Y-33698D01*
X58757Y-33698D01*
X58729Y-33680D01*
X58715Y-33661D01*
X58701Y-33623D01*
X58687Y-33548D01*
X58687Y-33455D01*
X58701Y-33380D01*
X58715Y-33342D01*
X58729Y-33323D01*
X58757Y-33304D01*
X59038Y-33304D02*
X59067Y-33304D01*
X59095Y-33323D01*
X59109Y-33342D01*
X59123Y-33380D01*
X59137Y-33455D01*
X59137Y-33548D01*
X59123Y-33623D01*
X59109Y-33661D01*
X59095Y-33680D01*
X59067Y-33698D01*
X59038Y-33698D01*
X59010Y-33680D01*
X58996Y-33661D01*
X58982Y-33623D01*
X58968Y-33548D01*
X58968Y-33455D01*
X58982Y-33380D01*
X58996Y-33342D01*
X59010Y-33323D01*
X59038Y-33304D01*
X59263Y-33436D02*
X59263Y-33698D01*
X59263Y-33473D02*
X59277Y-33455D01*
X59305Y-33436D01*
X59348Y-33436D01*
X59376Y-33455D01*
X59390Y-33492D01*
X59390Y-33698D01*
X59629Y-33492D02*
X59530Y-33492D01*
X59530Y-33698D02*
X59530Y-33304D01*
X59671Y-33304D01*
X55004Y-28959D02*
X54835Y-28959D01*
X54919Y-28959D02*
X54919Y-28565D01*
X54891Y-28622D01*
X54863Y-28659D01*
X54835Y-28678D01*
X55130Y-28697D02*
X55130Y-29091D01*
X55271Y-28903D02*
X55285Y-28941D01*
X55313Y-28959D01*
X55130Y-28903D02*
X55144Y-28941D01*
X55172Y-28959D01*
X55229Y-28959D01*
X55257Y-28941D01*
X55271Y-28903D01*
X55271Y-28697D01*
X55538Y-28753D02*
X55439Y-28753D01*
X55439Y-28959D02*
X55439Y-28565D01*
X55580Y-28565D01*
X50854Y-29559D02*
X50685Y-29559D01*
X50769Y-29559D02*
X50769Y-29165D01*
X50741Y-29222D01*
X50713Y-29259D01*
X50685Y-29278D01*
X50980Y-29297D02*
X50980Y-29691D01*
X51121Y-29503D02*
X51135Y-29541D01*
X51163Y-29559D01*
X50980Y-29503D02*
X50994Y-29541D01*
X51022Y-29559D01*
X51079Y-29559D01*
X51107Y-29541D01*
X51121Y-29503D01*
X51121Y-29297D01*
X51388Y-29353D02*
X51289Y-29353D01*
X51289Y-29559D02*
X51289Y-29165D01*
X51430Y-29165D01*
X53666Y-29617D02*
X53272Y-29617D01*
X53554Y-29518D01*
X53272Y-29420D01*
X53666Y-29420D01*
X53629Y-29111D02*
X53648Y-29125D01*
X53666Y-29167D01*
X53666Y-29195D01*
X53648Y-29238D01*
X53610Y-29266D01*
X53573Y-29280D01*
X53498Y-29294D01*
X53441Y-29294D01*
X53366Y-29280D01*
X53329Y-29266D01*
X53291Y-29238D01*
X53272Y-29195D01*
X53272Y-29167D01*
X53291Y-29125D01*
X53310Y-29111D01*
X53666Y-28985D02*
X53272Y-28985D01*
X53272Y-28872D01*
X53291Y-28844D01*
X53310Y-28830D01*
X53348Y-28816D01*
X53404Y-28816D01*
X53441Y-28830D01*
X53460Y-28844D01*
X53479Y-28872D01*
X53479Y-28985D01*
X53666Y-28535D02*
X53666Y-28704D01*
X53666Y-28620D02*
X53272Y-28620D01*
X53329Y-28648D01*
X53366Y-28676D01*
X53385Y-28704D01*
X53441Y-28367D02*
X53423Y-28395D01*
X53404Y-28409D01*
X53366Y-28423D01*
X53348Y-28423D01*
X53310Y-28409D01*
X53291Y-28395D01*
X53272Y-28367D01*
X53272Y-28310D01*
X53291Y-28282D01*
X53310Y-28268D01*
X53348Y-28254D01*
X53366Y-28254D01*
X53404Y-28268D01*
X53423Y-28282D01*
X53441Y-28310D01*
X53441Y-28367D01*
X53460Y-28395D01*
X53479Y-28409D01*
X53516Y-28423D01*
X53591Y-28423D01*
X53629Y-28409D01*
X53648Y-28395D01*
X53666Y-28367D01*
X53666Y-28310D01*
X53648Y-28282D01*
X53629Y-28268D01*
X53591Y-28254D01*
X53516Y-28254D01*
X53479Y-28268D01*
X53460Y-28282D01*
X53441Y-28310D01*
X53272Y-28072D02*
X53272Y-28043D01*
X53291Y-28015D01*
X53310Y-28001D01*
X53348Y-27987D01*
X53423Y-27973D01*
X53516Y-27973D01*
X53591Y-27987D01*
X53629Y-28001D01*
X53648Y-28015D01*
X53666Y-28043D01*
X53666Y-28072D01*
X53648Y-28100D01*
X53629Y-28114D01*
X53591Y-28128D01*
X53516Y-28142D01*
X53423Y-28142D01*
X53348Y-28128D01*
X53310Y-28114D01*
X53291Y-28100D01*
X53272Y-28072D01*
X53666Y-27692D02*
X53666Y-27861D01*
X53666Y-27777D02*
X53272Y-27777D01*
X53329Y-27805D01*
X53366Y-27833D01*
X53385Y-27861D01*
X53272Y-27608D02*
X53272Y-27439D01*
X53666Y-27524D02*
X53272Y-27524D01*
X69191Y-31263D02*
X69209Y-31221D01*
X69209Y-31150D01*
X69191Y-31122D01*
X69172Y-31108D01*
X69134Y-31094D01*
X69097Y-31094D01*
X69059Y-31108D01*
X69041Y-31122D01*
X69022Y-31150D01*
X69003Y-31207D01*
X68984Y-31235D01*
X68966Y-31249D01*
X68928Y-31263D01*
X68891Y-31263D01*
X68853Y-31249D01*
X68834Y-31235D01*
X68815Y-31207D01*
X68815Y-31136D01*
X68834Y-31094D01*
X69209Y-30968D02*
X68815Y-30968D01*
X69209Y-30799D02*
X68984Y-30926D01*
X68815Y-30799D02*
X69041Y-30968D01*
X69247Y-30476D02*
X69228Y-30504D01*
X69191Y-30532D01*
X69134Y-30574D01*
X69116Y-30603D01*
X69116Y-30631D01*
X69209Y-30617D02*
X69191Y-30645D01*
X69153Y-30673D01*
X69078Y-30687D01*
X68947Y-30687D01*
X68872Y-30673D01*
X68834Y-30645D01*
X68815Y-30617D01*
X68815Y-30560D01*
X68834Y-30532D01*
X68872Y-30504D01*
X68947Y-30490D01*
X69078Y-30490D01*
X69153Y-30504D01*
X69191Y-30532D01*
X69209Y-30560D01*
X69209Y-30617D01*
X68834Y-30209D02*
X68815Y-30237D01*
X68815Y-30279D01*
X68834Y-30322D01*
X68872Y-30350D01*
X68909Y-30364D01*
X68984Y-30378D01*
X69041Y-30378D01*
X69116Y-30364D01*
X69153Y-30350D01*
X69191Y-30322D01*
X69209Y-30279D01*
X69209Y-30251D01*
X69191Y-30209D01*
X69172Y-30195D01*
X69041Y-30195D01*
X69041Y-30251D01*
X69097Y-30083D02*
X69097Y-29942D01*
X69209Y-30111D02*
X68815Y-30013D01*
X69209Y-29914D01*
X69209Y-29816D02*
X68815Y-29816D01*
X68815Y-29746D01*
X68834Y-29703D01*
X68872Y-29675D01*
X68909Y-29661D01*
X68984Y-29647D01*
X69041Y-29647D01*
X69116Y-29661D01*
X69153Y-29675D01*
X69191Y-29703D01*
X69209Y-29746D01*
X69209Y-29816D01*
X69003Y-29521D02*
X69003Y-29422D01*
X69209Y-29380D02*
X69209Y-29521D01*
X68815Y-29521D01*
X68815Y-29380D01*
X68815Y-29198D02*
X68815Y-29169D01*
X68834Y-29141D01*
X68853Y-29127D01*
X68891Y-29113D01*
X68966Y-29099D01*
X69059Y-29099D01*
X69134Y-29113D01*
X69172Y-29127D01*
X69191Y-29141D01*
X69209Y-29169D01*
X69209Y-29198D01*
X69191Y-29226D01*
X69172Y-29240D01*
X69134Y-29254D01*
X69059Y-29268D01*
X68966Y-29268D01*
X68891Y-29254D01*
X68853Y-29240D01*
X68834Y-29226D01*
X68815Y-29198D01*
X69209Y-28818D02*
X69209Y-28987D01*
X69209Y-28903D02*
X68815Y-28903D01*
X68872Y-28931D01*
X68909Y-28959D01*
X68928Y-28987D01*
X68815Y-28636D02*
X68815Y-28607D01*
X68834Y-28579D01*
X68853Y-28565D01*
X68891Y-28551D01*
X68966Y-28537D01*
X69059Y-28537D01*
X69134Y-28551D01*
X69172Y-28565D01*
X69191Y-28579D01*
X69209Y-28607D01*
X69209Y-28636D01*
X69191Y-28664D01*
X69172Y-28678D01*
X69134Y-28692D01*
X69059Y-28706D01*
X68966Y-28706D01*
X68891Y-28692D01*
X68853Y-28678D01*
X68834Y-28664D01*
X68815Y-28636D01*
X55148Y-32600D02*
X55049Y-32413D01*
X54979Y-32600D02*
X54979Y-32206D01*
X55092Y-32206D01*
X55120Y-32225D01*
X55134Y-32244D01*
X55148Y-32282D01*
X55148Y-32338D01*
X55134Y-32375D01*
X55120Y-32394D01*
X55092Y-32413D01*
X54979Y-32413D01*
X55246Y-32206D02*
X55429Y-32206D01*
X55330Y-32357D01*
X55373Y-32357D01*
X55401Y-32375D01*
X55415Y-32394D01*
X55429Y-32432D01*
X55429Y-32525D01*
X55415Y-32563D01*
X55401Y-32582D01*
X55373Y-32600D01*
X55288Y-32600D01*
X55260Y-32582D01*
X55246Y-32563D01*
X55148Y-34568D02*
X55049Y-34381D01*
X54979Y-34568D02*
X54979Y-34174D01*
X55092Y-34174D01*
X55120Y-34193D01*
X55134Y-34212D01*
X55148Y-34250D01*
X55148Y-34306D01*
X55134Y-34343D01*
X55120Y-34362D01*
X55092Y-34381D01*
X54979Y-34381D01*
X55401Y-34306D02*
X55401Y-34568D01*
X55330Y-34156D02*
X55260Y-34437D01*
X55443Y-34437D01*
X67263Y-28141D02*
X67305Y-28159D01*
X67376Y-28159D01*
X67404Y-28141D01*
X67418Y-28122D01*
X67432Y-28084D01*
X67432Y-28047D01*
X67418Y-28009D01*
X67404Y-27991D01*
X67376Y-27972D01*
X67319Y-27953D01*
X67291Y-27934D01*
X67277Y-27916D01*
X67263Y-27878D01*
X67263Y-27841D01*
X67277Y-27803D01*
X67291Y-27784D01*
X67319Y-27765D01*
X67390Y-27765D01*
X67432Y-27784D01*
X67530Y-27765D02*
X67600Y-28159D01*
X67657Y-27878D01*
X67713Y-28159D01*
X67783Y-27765D01*
X67895Y-28159D02*
X67895Y-27765D01*
X67993Y-27765D02*
X68162Y-27765D01*
X68077Y-28159D02*
X68077Y-27765D01*
X68429Y-28122D02*
X68415Y-28141D01*
X68373Y-28159D01*
X68345Y-28159D01*
X68302Y-28141D01*
X68274Y-28103D01*
X68260Y-28066D01*
X68246Y-27991D01*
X68246Y-27934D01*
X68260Y-27859D01*
X68274Y-27822D01*
X68302Y-27784D01*
X68345Y-27765D01*
X68373Y-27765D01*
X68415Y-27784D01*
X68429Y-27803D01*
X68555Y-28159D02*
X68555Y-27765D01*
X68555Y-27953D02*
X68724Y-27953D01*
X68724Y-28159D02*
X68724Y-27765D01*
X54914Y-30303D02*
X54956Y-30322D01*
X54970Y-30341D01*
X54984Y-30378D01*
X54984Y-30434D01*
X54970Y-30472D01*
X54956Y-30491D01*
X54928Y-30509D01*
X54815Y-30509D01*
X54815Y-30115D01*
X54914Y-30115D01*
X54942Y-30134D01*
X54956Y-30153D01*
X54970Y-30191D01*
X54970Y-30228D01*
X54956Y-30266D01*
X54942Y-30284D01*
X54914Y-30303D01*
X54815Y-30303D01*
X55110Y-30303D02*
X55209Y-30303D01*
X55251Y-30509D02*
X55110Y-30509D01*
X55110Y-30115D01*
X55251Y-30115D01*
X55363Y-30397D02*
X55504Y-30397D01*
X55335Y-30509D02*
X55433Y-30115D01*
X55532Y-30509D01*
X55630Y-30509D02*
X55630Y-30115D01*
X55700Y-30115D01*
X55743Y-30134D01*
X55771Y-30172D01*
X55785Y-30209D01*
X55799Y-30284D01*
X55799Y-30341D01*
X55785Y-30416D01*
X55771Y-30453D01*
X55743Y-30491D01*
X55700Y-30509D01*
X55630Y-30509D01*
X55315Y-32042D02*
X55296Y-32028D01*
X55277Y-32000D01*
X55277Y-31929D01*
X55296Y-31901D01*
X55315Y-31887D01*
X55353Y-31873D01*
X55390Y-31873D01*
X55446Y-31887D01*
X55671Y-32056D01*
X55671Y-31873D01*
X55315Y-31761D02*
X55296Y-31747D01*
X55277Y-31719D01*
X55277Y-31648D01*
X55296Y-31620D01*
X55315Y-31606D01*
X55353Y-31592D01*
X55390Y-31592D01*
X55446Y-31606D01*
X55671Y-31775D01*
X55671Y-31592D01*
X55277Y-31410D02*
X55277Y-31381D01*
X55296Y-31353D01*
X55315Y-31339D01*
X55353Y-31325D01*
X55428Y-31311D01*
X55521Y-31311D01*
X55596Y-31325D01*
X55634Y-31339D01*
X55653Y-31353D01*
X55671Y-31381D01*
X55671Y-31410D01*
X55653Y-31438D01*
X55634Y-31452D01*
X55596Y-31466D01*
X55521Y-31480D01*
X55428Y-31480D01*
X55353Y-31466D01*
X55315Y-31452D01*
X55296Y-31438D01*
X55277Y-31410D01*
X55409Y-31185D02*
X55671Y-31185D01*
X55446Y-31185D02*
X55428Y-31171D01*
X55409Y-31143D01*
X55409Y-31100D01*
X55428Y-31072D01*
X55465Y-31058D01*
X55671Y-31058D01*
X55465Y-30819D02*
X55465Y-30918D01*
X55671Y-30918D02*
X55277Y-30918D01*
X55277Y-30777D01*
X64697Y-29059D02*
X64528Y-29059D01*
X64612Y-29059D02*
X64612Y-28665D01*
X64584Y-28722D01*
X64556Y-28759D01*
X64528Y-28778D01*
X64879Y-28665D02*
X64908Y-28665D01*
X64936Y-28684D01*
X64950Y-28703D01*
X64964Y-28741D01*
X64978Y-28816D01*
X64978Y-28909D01*
X64964Y-28984D01*
X64950Y-29022D01*
X64936Y-29041D01*
X64908Y-29059D01*
X64879Y-29059D01*
X64851Y-29041D01*
X64837Y-29022D01*
X64823Y-28984D01*
X64809Y-28909D01*
X64809Y-28816D01*
X64823Y-28741D01*
X64837Y-28703D01*
X64851Y-28684D01*
X64879Y-28665D01*
X65104Y-29059D02*
X65104Y-28665D01*
X65273Y-29059D02*
X65146Y-28834D01*
X65273Y-28665D02*
X65104Y-28891D01*
X61635Y-34697D02*
X61776Y-34697D01*
X61607Y-34809D02*
X61705Y-34415D01*
X61804Y-34809D01*
X61902Y-34415D02*
X61902Y-34734D01*
X61916Y-34772D01*
X61930Y-34791D01*
X61958Y-34809D01*
X62015Y-34809D01*
X62043Y-34791D01*
X62057Y-34772D01*
X62071Y-34734D01*
X62071Y-34415D01*
X62183Y-34415D02*
X62380Y-34809D01*
X62380Y-34415D02*
X62183Y-34809D01*
X64862Y-34103D02*
X64693Y-34103D01*
X64777Y-34103D02*
X64777Y-33709D01*
X64749Y-33766D01*
X64721Y-33803D01*
X64693Y-33822D01*
X64974Y-33747D02*
X64988Y-33728D01*
X65016Y-33709D01*
X65087Y-33709D01*
X65115Y-33728D01*
X65129Y-33747D01*
X65143Y-33785D01*
X65143Y-33822D01*
X65129Y-33878D01*
X64960Y-34103D01*
X65143Y-34103D01*
X65269Y-34103D02*
X65269Y-33709D01*
X65368Y-33991D01*
X65466Y-33709D01*
X65466Y-34103D01*
X65606Y-34103D02*
X65606Y-33709D01*
X65606Y-33897D02*
X65775Y-33897D01*
X65775Y-34103D02*
X65775Y-33709D01*
X65887Y-33841D02*
X66042Y-33841D01*
X65887Y-34103D01*
X66042Y-34103D01*
X54209Y-33247D02*
X54209Y-33416D01*
X54209Y-33332D02*
X53815Y-33332D01*
X53872Y-33360D01*
X53909Y-33388D01*
X53928Y-33416D01*
X53815Y-32980D02*
X53815Y-33121D01*
X54003Y-33135D01*
X53984Y-33121D01*
X53966Y-33093D01*
X53966Y-33022D01*
X53984Y-32994D01*
X54003Y-32980D01*
X54041Y-32966D01*
X54134Y-32966D01*
X54172Y-32980D01*
X54191Y-32994D01*
X54209Y-33022D01*
X54209Y-33093D01*
X54191Y-33121D01*
X54172Y-33135D01*
X53947Y-32713D02*
X54209Y-32713D01*
X53797Y-32784D02*
X54078Y-32854D01*
X54078Y-32671D01*
X54059Y-32559D02*
X54059Y-32334D01*
X54209Y-32039D02*
X54209Y-32208D01*
X54209Y-32124D02*
X53815Y-32124D01*
X53872Y-32152D01*
X53909Y-32180D01*
X53928Y-32208D01*
X53815Y-31772D02*
X53815Y-31913D01*
X54003Y-31927D01*
X53984Y-31913D01*
X53966Y-31885D01*
X53966Y-31814D01*
X53984Y-31786D01*
X54003Y-31772D01*
X54041Y-31758D01*
X54134Y-31758D01*
X54172Y-31772D01*
X54191Y-31786D01*
X54209Y-31814D01*
X54209Y-31885D01*
X54191Y-31913D01*
X54172Y-31927D01*
X53815Y-31660D02*
X53815Y-31477D01*
X53966Y-31576D01*
X53966Y-31533D01*
X53984Y-31505D01*
X54003Y-31491D01*
X54041Y-31477D01*
X54134Y-31477D01*
X54172Y-31491D01*
X54191Y-31505D01*
X54209Y-31533D01*
X54209Y-31618D01*
X54191Y-31646D01*
X54172Y-31660D01*
X53853Y-31365D02*
X53834Y-31351D01*
X53815Y-31323D01*
X53815Y-31252D01*
X53834Y-31224D01*
X53853Y-31210D01*
X53891Y-31196D01*
X53928Y-31196D01*
X53984Y-31210D01*
X54209Y-31379D01*
X54209Y-31196D01*
X53815Y-31014D02*
X53815Y-30985D01*
X53834Y-30957D01*
X53853Y-30943D01*
X53891Y-30929D01*
X53966Y-30915D01*
X54059Y-30915D01*
X54134Y-30929D01*
X54172Y-30943D01*
X54191Y-30957D01*
X54209Y-30985D01*
X54209Y-31014D01*
X54191Y-31042D01*
X54172Y-31056D01*
X54134Y-31070D01*
X54059Y-31084D01*
X53966Y-31084D01*
X53891Y-31070D01*
X53853Y-31056D01*
X53834Y-31042D01*
X53815Y-31014D01*
X54059Y-30789D02*
X54059Y-30564D01*
X54003Y-30424D02*
X54003Y-30325D01*
X54209Y-30283D02*
X54209Y-30424D01*
X53815Y-30424D01*
X53815Y-30283D01*
%LPC*%
G54D14*
X64173Y-31969D03*
X64961Y-31969D03*
X66536Y-31969D03*
X65748Y-31969D03*
X59956Y-33500D03*
X60744Y-33500D03*
G54D15*
X54488Y-28346D03*
X54488Y-29134D03*
X50984Y-28149D03*
X50984Y-28937D03*
G54D16*
X52913Y-28918D03*
G54D17*
X52913Y-28168D03*
X51811Y-28918D03*
X52913Y-28543D03*
X51811Y-28168D03*
G54D18*
X61515Y-32750D03*
X61515Y-32250D03*
X61515Y-31750D03*
X61515Y-31250D03*
X61515Y-30750D03*
X61515Y-30250D03*
X61515Y-29750D03*
X61515Y-29250D03*
X61515Y-28750D03*
X61515Y-28250D03*
X57185Y-28250D03*
X57185Y-28750D03*
X57185Y-29250D03*
X57185Y-29750D03*
X57185Y-30250D03*
X57185Y-30750D03*
X57185Y-31250D03*
X57185Y-31750D03*
X57185Y-32250D03*
X57185Y-32750D03*
G54D19*
X55000Y-35250D03*
G54D20*
X56000Y-35250D03*
X57000Y-35250D03*
X58000Y-35250D03*
X59000Y-35250D03*
X60000Y-35250D03*
G54D21*
X65880Y-29072D03*
X65880Y-30528D03*
X68320Y-29072D03*
X68320Y-30528D03*
G54D14*
X54803Y-32992D03*
X55591Y-32992D03*
X54803Y-33780D03*
X55591Y-33780D03*
G54D20*
X68000Y-27250D03*
X52000Y-27250D03*
X51000Y-27250D03*
G54D15*
X54488Y-30709D03*
X54488Y-29921D03*
X56063Y-32048D03*
X56063Y-31260D03*
X64900Y-30194D03*
X64900Y-29406D03*
G54D20*
X62000Y-35250D03*
G54D22*
X63385Y-33307D03*
X67323Y-33307D03*
G54D23*
X66315Y-33307D03*
X64393Y-33307D03*
G54D24*
X53241Y-32520D03*
X53241Y-32205D03*
X53241Y-31890D03*
X53241Y-31575D03*
X53241Y-31260D03*
G54D25*
X53201Y-30138D03*
X51036Y-30138D03*
X51036Y-33642D03*
X53201Y-33642D03*
G54D26*
X52217Y-31024D03*
X52217Y-32756D03*
G54D20*
X67000Y-25250D03*
X66000Y-25250D03*
X65000Y-25250D03*
X64000Y-25250D03*
X63000Y-25250D03*
X62000Y-25250D03*
X61000Y-25250D03*
X60000Y-25250D03*
X59000Y-25250D03*
X58000Y-25250D03*
X57000Y-25250D03*
X56000Y-25250D03*
X55000Y-25250D03*
X54000Y-25250D03*
X53000Y-25250D03*
X67000Y-26250D03*
X66000Y-26250D03*
X65000Y-26250D03*
X64000Y-26250D03*
X63000Y-26250D03*
X62000Y-26250D03*
X61000Y-26250D03*
X60000Y-26250D03*
X59000Y-26250D03*
X58000Y-26250D03*
X57000Y-26250D03*
X56000Y-26250D03*
X55000Y-26250D03*
X54000Y-26250D03*
X53000Y-26250D03*
M02*
