G04 (created by PCBNEW-RS274X (2012-01-19 BZR 3256)-stable) date 5/11/2012 7:46:45 PM*
G01*
G70*
G90*
%MOIN*%
G04 Gerber Fmt 3.4, Leading zero omitted, Abs format*
%FSLAX34Y34*%
G04 APERTURE LIST*
%ADD10C,0.006000*%
%ADD11C,0.005900*%
%ADD12C,0.015000*%
%ADD13C,0.012000*%
%ADD14R,0.088000X0.088000*%
%ADD15C,0.088000*%
%ADD16C,0.098700*%
%ADD17C,0.055400*%
G04 APERTURE END LIST*
G54D10*
G54D11*
X52056Y-26265D02*
X52197Y-26265D01*
X52211Y-26453D01*
X52197Y-26434D01*
X52169Y-26416D01*
X52098Y-26416D01*
X52070Y-26434D01*
X52056Y-26453D01*
X52042Y-26491D01*
X52042Y-26584D01*
X52056Y-26622D01*
X52070Y-26641D01*
X52098Y-26659D01*
X52169Y-26659D01*
X52197Y-26641D01*
X52211Y-26622D01*
X51958Y-26265D02*
X51860Y-26659D01*
X51761Y-26265D01*
X51365Y-26265D02*
X51182Y-26265D01*
X51281Y-26416D01*
X51238Y-26416D01*
X51210Y-26434D01*
X51196Y-26453D01*
X51182Y-26491D01*
X51182Y-26584D01*
X51196Y-26622D01*
X51210Y-26641D01*
X51238Y-26659D01*
X51323Y-26659D01*
X51351Y-26641D01*
X51365Y-26622D01*
X51098Y-26265D02*
X51000Y-26659D01*
X50901Y-26265D01*
X50831Y-26265D02*
X50648Y-26265D01*
X50747Y-26416D01*
X50704Y-26416D01*
X50676Y-26434D01*
X50662Y-26453D01*
X50648Y-26491D01*
X50648Y-26584D01*
X50662Y-26622D01*
X50676Y-26641D01*
X50704Y-26659D01*
X50789Y-26659D01*
X50817Y-26641D01*
X50831Y-26622D01*
G54D12*
X53950Y-35350D02*
X54000Y-35300D01*
X53950Y-35150D02*
X53950Y-35350D01*
X54050Y-35250D02*
X53950Y-35150D01*
X53850Y-34900D02*
X54200Y-35250D01*
X53850Y-35600D02*
X53850Y-34900D01*
X54200Y-35250D02*
X53850Y-35600D01*
X53750Y-35850D02*
X54350Y-35250D01*
X53750Y-34650D02*
X53750Y-35850D01*
X54350Y-35250D02*
X53750Y-34650D01*
G54D13*
X64243Y-28990D02*
X63929Y-28990D01*
X64243Y-29524D01*
X63929Y-29524D01*
X63443Y-29524D02*
X63443Y-29105D01*
X63472Y-29029D01*
X63529Y-28990D01*
X63643Y-28990D01*
X63700Y-29029D01*
X63443Y-29486D02*
X63500Y-29524D01*
X63643Y-29524D01*
X63700Y-29486D01*
X63729Y-29410D01*
X63729Y-29333D01*
X63700Y-29257D01*
X63643Y-29219D01*
X63500Y-29219D01*
X63443Y-29181D01*
X62900Y-29486D02*
X62957Y-29524D01*
X63071Y-29524D01*
X63129Y-29486D01*
X63157Y-29448D01*
X63186Y-29371D01*
X63186Y-29143D01*
X63157Y-29067D01*
X63129Y-29029D01*
X63071Y-28990D01*
X62957Y-28990D01*
X62900Y-29029D01*
X62643Y-29524D02*
X62643Y-28724D01*
X62386Y-29524D02*
X62386Y-29105D01*
X62415Y-29029D01*
X62472Y-28990D01*
X62557Y-28990D01*
X62615Y-29029D01*
X62643Y-29067D01*
X62100Y-29448D02*
X62072Y-29486D01*
X62100Y-29524D01*
X62129Y-29486D01*
X62100Y-29448D01*
X62100Y-29524D01*
X61814Y-29524D02*
X61814Y-28724D01*
X61557Y-29524D02*
X61557Y-29105D01*
X61586Y-29029D01*
X61643Y-28990D01*
X61728Y-28990D01*
X61786Y-29029D01*
X61814Y-29067D01*
X61043Y-29486D02*
X61100Y-29524D01*
X61214Y-29524D01*
X61271Y-29486D01*
X61300Y-29410D01*
X61300Y-29105D01*
X61271Y-29029D01*
X61214Y-28990D01*
X61100Y-28990D01*
X61043Y-29029D01*
X61014Y-29105D01*
X61014Y-29181D01*
X61300Y-29257D01*
X60757Y-29524D02*
X60757Y-28990D01*
X60757Y-28724D02*
X60786Y-28762D01*
X60757Y-28800D01*
X60729Y-28762D01*
X60757Y-28724D01*
X60757Y-28800D01*
X60385Y-29524D02*
X60443Y-29486D01*
X60471Y-29410D01*
X60471Y-28724D01*
X60157Y-29524D02*
X60157Y-28990D01*
X60157Y-28724D02*
X60186Y-28762D01*
X60157Y-28800D01*
X60129Y-28762D01*
X60157Y-28724D01*
X60157Y-28800D01*
X59614Y-28990D02*
X59614Y-29638D01*
X59643Y-29714D01*
X59671Y-29752D01*
X59728Y-29790D01*
X59814Y-29790D01*
X59871Y-29752D01*
X59614Y-29486D02*
X59671Y-29524D01*
X59785Y-29524D01*
X59843Y-29486D01*
X59871Y-29448D01*
X59900Y-29371D01*
X59900Y-29143D01*
X59871Y-29067D01*
X59843Y-29029D01*
X59785Y-28990D01*
X59671Y-28990D01*
X59614Y-29029D01*
X58957Y-29143D02*
X58985Y-29105D01*
X59042Y-29067D01*
X59100Y-29067D01*
X59157Y-29105D01*
X59185Y-29143D01*
X59214Y-29219D01*
X59214Y-29295D01*
X59185Y-29371D01*
X59157Y-29410D01*
X59100Y-29448D01*
X59042Y-29448D01*
X58985Y-29410D01*
X58957Y-29371D01*
X58957Y-29067D02*
X58957Y-29371D01*
X58928Y-29410D01*
X58900Y-29410D01*
X58842Y-29371D01*
X58814Y-29295D01*
X58814Y-29105D01*
X58871Y-28990D01*
X58957Y-28914D01*
X59071Y-28876D01*
X59185Y-28914D01*
X59271Y-28990D01*
X59328Y-29105D01*
X59357Y-29257D01*
X59328Y-29410D01*
X59271Y-29524D01*
X59185Y-29600D01*
X59071Y-29638D01*
X58957Y-29600D01*
X58871Y-29524D01*
X58300Y-28990D02*
X58300Y-29638D01*
X58329Y-29714D01*
X58357Y-29752D01*
X58414Y-29790D01*
X58500Y-29790D01*
X58557Y-29752D01*
X58300Y-29486D02*
X58357Y-29524D01*
X58471Y-29524D01*
X58529Y-29486D01*
X58557Y-29448D01*
X58586Y-29371D01*
X58586Y-29143D01*
X58557Y-29067D01*
X58529Y-29029D01*
X58471Y-28990D01*
X58357Y-28990D01*
X58300Y-29029D01*
X58014Y-29524D02*
X58014Y-28990D01*
X58014Y-29067D02*
X57986Y-29029D01*
X57928Y-28990D01*
X57843Y-28990D01*
X57786Y-29029D01*
X57757Y-29105D01*
X57757Y-29524D01*
X57757Y-29105D02*
X57728Y-29029D01*
X57671Y-28990D01*
X57586Y-28990D01*
X57528Y-29029D01*
X57500Y-29105D01*
X57500Y-29524D01*
X56957Y-29524D02*
X56957Y-29105D01*
X56986Y-29029D01*
X57043Y-28990D01*
X57157Y-28990D01*
X57214Y-29029D01*
X56957Y-29486D02*
X57014Y-29524D01*
X57157Y-29524D01*
X57214Y-29486D01*
X57243Y-29410D01*
X57243Y-29333D01*
X57214Y-29257D01*
X57157Y-29219D01*
X57014Y-29219D01*
X56957Y-29181D01*
X56671Y-29524D02*
X56671Y-28990D01*
X56671Y-28724D02*
X56700Y-28762D01*
X56671Y-28800D01*
X56643Y-28762D01*
X56671Y-28724D01*
X56671Y-28800D01*
X56299Y-29524D02*
X56357Y-29486D01*
X56385Y-29410D01*
X56385Y-28724D01*
X56071Y-29448D02*
X56043Y-29486D01*
X56071Y-29524D01*
X56100Y-29486D01*
X56071Y-29448D01*
X56071Y-29524D01*
X55528Y-29486D02*
X55585Y-29524D01*
X55699Y-29524D01*
X55757Y-29486D01*
X55785Y-29448D01*
X55814Y-29371D01*
X55814Y-29143D01*
X55785Y-29067D01*
X55757Y-29029D01*
X55699Y-28990D01*
X55585Y-28990D01*
X55528Y-29029D01*
X55185Y-29524D02*
X55243Y-29486D01*
X55271Y-29448D01*
X55300Y-29371D01*
X55300Y-29143D01*
X55271Y-29067D01*
X55243Y-29029D01*
X55185Y-28990D01*
X55100Y-28990D01*
X55043Y-29029D01*
X55014Y-29067D01*
X54985Y-29143D01*
X54985Y-29371D01*
X55014Y-29448D01*
X55043Y-29486D01*
X55100Y-29524D01*
X55185Y-29524D01*
X54728Y-29524D02*
X54728Y-28990D01*
X54728Y-29067D02*
X54700Y-29029D01*
X54642Y-28990D01*
X54557Y-28990D01*
X54500Y-29029D01*
X54471Y-29105D01*
X54471Y-29524D01*
X54471Y-29105D02*
X54442Y-29029D01*
X54385Y-28990D01*
X54300Y-28990D01*
X54242Y-29029D01*
X54214Y-29105D01*
X54214Y-29524D01*
G54D11*
X65159Y-27004D02*
X64972Y-26905D01*
X65159Y-26835D02*
X64765Y-26835D01*
X64765Y-26948D01*
X64784Y-26976D01*
X64803Y-26990D01*
X64841Y-27004D01*
X64897Y-27004D01*
X64934Y-26990D01*
X64953Y-26976D01*
X64972Y-26948D01*
X64972Y-26835D01*
X65122Y-27299D02*
X65141Y-27285D01*
X65159Y-27243D01*
X65159Y-27215D01*
X65141Y-27172D01*
X65103Y-27144D01*
X65066Y-27130D01*
X64991Y-27116D01*
X64934Y-27116D01*
X64859Y-27130D01*
X64822Y-27144D01*
X64784Y-27172D01*
X64765Y-27215D01*
X64765Y-27243D01*
X64784Y-27285D01*
X64803Y-27299D01*
X64765Y-27397D02*
X64765Y-27594D01*
X65159Y-27467D01*
X55159Y-27004D02*
X54972Y-26905D01*
X55159Y-26835D02*
X54765Y-26835D01*
X54765Y-26948D01*
X54784Y-26976D01*
X54803Y-26990D01*
X54841Y-27004D01*
X54897Y-27004D01*
X54934Y-26990D01*
X54953Y-26976D01*
X54972Y-26948D01*
X54972Y-26835D01*
X54953Y-27229D02*
X54972Y-27271D01*
X54991Y-27285D01*
X55028Y-27299D01*
X55084Y-27299D01*
X55122Y-27285D01*
X55141Y-27271D01*
X55159Y-27243D01*
X55159Y-27130D01*
X54765Y-27130D01*
X54765Y-27229D01*
X54784Y-27257D01*
X54803Y-27271D01*
X54841Y-27285D01*
X54878Y-27285D01*
X54916Y-27271D01*
X54934Y-27257D01*
X54953Y-27229D01*
X54953Y-27130D01*
X54765Y-27566D02*
X54765Y-27425D01*
X54953Y-27411D01*
X54934Y-27425D01*
X54916Y-27453D01*
X54916Y-27524D01*
X54934Y-27552D01*
X54953Y-27566D01*
X54991Y-27580D01*
X55084Y-27580D01*
X55122Y-27566D01*
X55141Y-27552D01*
X55159Y-27524D01*
X55159Y-27453D01*
X55141Y-27425D01*
X55122Y-27411D01*
X56159Y-27004D02*
X55972Y-26905D01*
X56159Y-26835D02*
X55765Y-26835D01*
X55765Y-26948D01*
X55784Y-26976D01*
X55803Y-26990D01*
X55841Y-27004D01*
X55897Y-27004D01*
X55934Y-26990D01*
X55953Y-26976D01*
X55972Y-26948D01*
X55972Y-26835D01*
X55953Y-27229D02*
X55972Y-27271D01*
X55991Y-27285D01*
X56028Y-27299D01*
X56084Y-27299D01*
X56122Y-27285D01*
X56141Y-27271D01*
X56159Y-27243D01*
X56159Y-27130D01*
X55765Y-27130D01*
X55765Y-27229D01*
X55784Y-27257D01*
X55803Y-27271D01*
X55841Y-27285D01*
X55878Y-27285D01*
X55916Y-27271D01*
X55934Y-27257D01*
X55953Y-27229D01*
X55953Y-27130D01*
X55765Y-27552D02*
X55765Y-27495D01*
X55784Y-27467D01*
X55803Y-27453D01*
X55859Y-27425D01*
X55934Y-27411D01*
X56084Y-27411D01*
X56122Y-27425D01*
X56141Y-27439D01*
X56159Y-27467D01*
X56159Y-27524D01*
X56141Y-27552D01*
X56122Y-27566D01*
X56084Y-27580D01*
X55991Y-27580D01*
X55953Y-27566D01*
X55934Y-27552D01*
X55916Y-27524D01*
X55916Y-27467D01*
X55934Y-27439D01*
X55953Y-27425D01*
X55991Y-27411D01*
X57159Y-27004D02*
X56972Y-26905D01*
X57159Y-26835D02*
X56765Y-26835D01*
X56765Y-26948D01*
X56784Y-26976D01*
X56803Y-26990D01*
X56841Y-27004D01*
X56897Y-27004D01*
X56934Y-26990D01*
X56953Y-26976D01*
X56972Y-26948D01*
X56972Y-26835D01*
X56953Y-27229D02*
X56972Y-27271D01*
X56991Y-27285D01*
X57028Y-27299D01*
X57084Y-27299D01*
X57122Y-27285D01*
X57141Y-27271D01*
X57159Y-27243D01*
X57159Y-27130D01*
X56765Y-27130D01*
X56765Y-27229D01*
X56784Y-27257D01*
X56803Y-27271D01*
X56841Y-27285D01*
X56878Y-27285D01*
X56916Y-27271D01*
X56934Y-27257D01*
X56953Y-27229D01*
X56953Y-27130D01*
X56765Y-27397D02*
X56765Y-27594D01*
X57159Y-27467D01*
X64159Y-27004D02*
X63972Y-26905D01*
X64159Y-26835D02*
X63765Y-26835D01*
X63765Y-26948D01*
X63784Y-26976D01*
X63803Y-26990D01*
X63841Y-27004D01*
X63897Y-27004D01*
X63934Y-26990D01*
X63953Y-26976D01*
X63972Y-26948D01*
X63972Y-26835D01*
X64122Y-27299D02*
X64141Y-27285D01*
X64159Y-27243D01*
X64159Y-27215D01*
X64141Y-27172D01*
X64103Y-27144D01*
X64066Y-27130D01*
X63991Y-27116D01*
X63934Y-27116D01*
X63859Y-27130D01*
X63822Y-27144D01*
X63784Y-27172D01*
X63765Y-27215D01*
X63765Y-27243D01*
X63784Y-27285D01*
X63803Y-27299D01*
X63765Y-27552D02*
X63765Y-27495D01*
X63784Y-27467D01*
X63803Y-27453D01*
X63859Y-27425D01*
X63934Y-27411D01*
X64084Y-27411D01*
X64122Y-27425D01*
X64141Y-27439D01*
X64159Y-27467D01*
X64159Y-27524D01*
X64141Y-27552D01*
X64122Y-27566D01*
X64084Y-27580D01*
X63991Y-27580D01*
X63953Y-27566D01*
X63934Y-27552D01*
X63916Y-27524D01*
X63916Y-27467D01*
X63934Y-27439D01*
X63953Y-27425D01*
X63991Y-27411D01*
X61159Y-27004D02*
X60972Y-26905D01*
X61159Y-26835D02*
X60765Y-26835D01*
X60765Y-26948D01*
X60784Y-26976D01*
X60803Y-26990D01*
X60841Y-27004D01*
X60897Y-27004D01*
X60934Y-26990D01*
X60953Y-26976D01*
X60972Y-26948D01*
X60972Y-26835D01*
X61122Y-27299D02*
X61141Y-27285D01*
X61159Y-27243D01*
X61159Y-27215D01*
X61141Y-27172D01*
X61103Y-27144D01*
X61066Y-27130D01*
X60991Y-27116D01*
X60934Y-27116D01*
X60859Y-27130D01*
X60822Y-27144D01*
X60784Y-27172D01*
X60765Y-27215D01*
X60765Y-27243D01*
X60784Y-27285D01*
X60803Y-27299D01*
X60765Y-27397D02*
X60765Y-27580D01*
X60916Y-27481D01*
X60916Y-27524D01*
X60934Y-27552D01*
X60953Y-27566D01*
X60991Y-27580D01*
X61084Y-27580D01*
X61122Y-27566D01*
X61141Y-27552D01*
X61159Y-27524D01*
X61159Y-27439D01*
X61141Y-27411D01*
X61122Y-27397D01*
X62159Y-27004D02*
X61972Y-26905D01*
X62159Y-26835D02*
X61765Y-26835D01*
X61765Y-26948D01*
X61784Y-26976D01*
X61803Y-26990D01*
X61841Y-27004D01*
X61897Y-27004D01*
X61934Y-26990D01*
X61953Y-26976D01*
X61972Y-26948D01*
X61972Y-26835D01*
X62122Y-27299D02*
X62141Y-27285D01*
X62159Y-27243D01*
X62159Y-27215D01*
X62141Y-27172D01*
X62103Y-27144D01*
X62066Y-27130D01*
X61991Y-27116D01*
X61934Y-27116D01*
X61859Y-27130D01*
X61822Y-27144D01*
X61784Y-27172D01*
X61765Y-27215D01*
X61765Y-27243D01*
X61784Y-27285D01*
X61803Y-27299D01*
X61897Y-27552D02*
X62159Y-27552D01*
X61747Y-27481D02*
X62028Y-27411D01*
X62028Y-27594D01*
X63159Y-27004D02*
X62972Y-26905D01*
X63159Y-26835D02*
X62765Y-26835D01*
X62765Y-26948D01*
X62784Y-26976D01*
X62803Y-26990D01*
X62841Y-27004D01*
X62897Y-27004D01*
X62934Y-26990D01*
X62953Y-26976D01*
X62972Y-26948D01*
X62972Y-26835D01*
X63122Y-27299D02*
X63141Y-27285D01*
X63159Y-27243D01*
X63159Y-27215D01*
X63141Y-27172D01*
X63103Y-27144D01*
X63066Y-27130D01*
X62991Y-27116D01*
X62934Y-27116D01*
X62859Y-27130D01*
X62822Y-27144D01*
X62784Y-27172D01*
X62765Y-27215D01*
X62765Y-27243D01*
X62784Y-27285D01*
X62803Y-27299D01*
X62765Y-27566D02*
X62765Y-27425D01*
X62953Y-27411D01*
X62934Y-27425D01*
X62916Y-27453D01*
X62916Y-27524D01*
X62934Y-27552D01*
X62953Y-27566D01*
X62991Y-27580D01*
X63084Y-27580D01*
X63122Y-27566D01*
X63141Y-27552D01*
X63159Y-27524D01*
X63159Y-27453D01*
X63141Y-27425D01*
X63122Y-27411D01*
X66159Y-27003D02*
X65972Y-26904D01*
X66159Y-26834D02*
X65765Y-26834D01*
X65765Y-26947D01*
X65784Y-26975D01*
X65803Y-26989D01*
X65841Y-27003D01*
X65897Y-27003D01*
X65934Y-26989D01*
X65953Y-26975D01*
X65972Y-26947D01*
X65972Y-26834D01*
X66047Y-27115D02*
X66047Y-27256D01*
X66159Y-27087D02*
X65765Y-27185D01*
X66159Y-27284D01*
X65765Y-27354D02*
X65765Y-27537D01*
X65916Y-27438D01*
X65916Y-27481D01*
X65934Y-27509D01*
X65953Y-27523D01*
X65991Y-27537D01*
X66084Y-27537D01*
X66122Y-27523D01*
X66141Y-27509D01*
X66159Y-27481D01*
X66159Y-27396D01*
X66141Y-27368D01*
X66122Y-27354D01*
X65747Y-27874D02*
X66253Y-27621D01*
X66159Y-28141D02*
X65972Y-28042D01*
X66159Y-27972D02*
X65765Y-27972D01*
X65765Y-28085D01*
X65784Y-28113D01*
X65803Y-28127D01*
X65841Y-28141D01*
X65897Y-28141D01*
X65934Y-28127D01*
X65953Y-28113D01*
X65972Y-28085D01*
X65972Y-27972D01*
X65953Y-28267D02*
X65953Y-28366D01*
X66159Y-28408D02*
X66159Y-28267D01*
X65765Y-28267D01*
X65765Y-28408D01*
X66141Y-28520D02*
X66159Y-28562D01*
X66159Y-28633D01*
X66141Y-28661D01*
X66122Y-28675D01*
X66084Y-28689D01*
X66047Y-28689D01*
X66009Y-28675D01*
X65991Y-28661D01*
X65972Y-28633D01*
X65953Y-28576D01*
X65934Y-28548D01*
X65916Y-28534D01*
X65878Y-28520D01*
X65841Y-28520D01*
X65803Y-28534D01*
X65784Y-28548D01*
X65765Y-28576D01*
X65765Y-28647D01*
X65784Y-28689D01*
X65953Y-28815D02*
X65953Y-28914D01*
X66159Y-28956D02*
X66159Y-28815D01*
X65765Y-28815D01*
X65765Y-28956D01*
X65765Y-29040D02*
X65765Y-29209D01*
X66159Y-29124D02*
X65765Y-29124D01*
X65621Y-27902D02*
X65621Y-29237D01*
X52865Y-26819D02*
X53259Y-26917D01*
X52865Y-27016D01*
X53109Y-27114D02*
X53109Y-27339D01*
X53259Y-27227D02*
X52959Y-27227D01*
X54159Y-27004D02*
X53972Y-26905D01*
X54159Y-26835D02*
X53765Y-26835D01*
X53765Y-26948D01*
X53784Y-26976D01*
X53803Y-26990D01*
X53841Y-27004D01*
X53897Y-27004D01*
X53934Y-26990D01*
X53953Y-26976D01*
X53972Y-26948D01*
X53972Y-26835D01*
X53953Y-27229D02*
X53972Y-27271D01*
X53991Y-27285D01*
X54028Y-27299D01*
X54084Y-27299D01*
X54122Y-27285D01*
X54141Y-27271D01*
X54159Y-27243D01*
X54159Y-27130D01*
X53765Y-27130D01*
X53765Y-27229D01*
X53784Y-27257D01*
X53803Y-27271D01*
X53841Y-27285D01*
X53878Y-27285D01*
X53916Y-27271D01*
X53934Y-27257D01*
X53953Y-27229D01*
X53953Y-27130D01*
X53897Y-27552D02*
X54159Y-27552D01*
X53747Y-27481D02*
X54028Y-27411D01*
X54028Y-27594D01*
X60159Y-27004D02*
X59972Y-26905D01*
X60159Y-26835D02*
X59765Y-26835D01*
X59765Y-26948D01*
X59784Y-26976D01*
X59803Y-26990D01*
X59841Y-27004D01*
X59897Y-27004D01*
X59934Y-26990D01*
X59953Y-26976D01*
X59972Y-26948D01*
X59972Y-26835D01*
X60122Y-27299D02*
X60141Y-27285D01*
X60159Y-27243D01*
X60159Y-27215D01*
X60141Y-27172D01*
X60103Y-27144D01*
X60066Y-27130D01*
X59991Y-27116D01*
X59934Y-27116D01*
X59859Y-27130D01*
X59822Y-27144D01*
X59784Y-27172D01*
X59765Y-27215D01*
X59765Y-27243D01*
X59784Y-27285D01*
X59803Y-27299D01*
X59803Y-27411D02*
X59784Y-27425D01*
X59765Y-27453D01*
X59765Y-27524D01*
X59784Y-27552D01*
X59803Y-27566D01*
X59841Y-27580D01*
X59878Y-27580D01*
X59934Y-27566D01*
X60159Y-27397D01*
X60159Y-27580D01*
X59159Y-27004D02*
X58972Y-26905D01*
X59159Y-26835D02*
X58765Y-26835D01*
X58765Y-26948D01*
X58784Y-26976D01*
X58803Y-26990D01*
X58841Y-27004D01*
X58897Y-27004D01*
X58934Y-26990D01*
X58953Y-26976D01*
X58972Y-26948D01*
X58972Y-26835D01*
X59122Y-27299D02*
X59141Y-27285D01*
X59159Y-27243D01*
X59159Y-27215D01*
X59141Y-27172D01*
X59103Y-27144D01*
X59066Y-27130D01*
X58991Y-27116D01*
X58934Y-27116D01*
X58859Y-27130D01*
X58822Y-27144D01*
X58784Y-27172D01*
X58765Y-27215D01*
X58765Y-27243D01*
X58784Y-27285D01*
X58803Y-27299D01*
X59159Y-27580D02*
X59159Y-27411D01*
X59159Y-27495D02*
X58765Y-27495D01*
X58822Y-27467D01*
X58859Y-27439D01*
X58878Y-27411D01*
X58159Y-27004D02*
X57972Y-26905D01*
X58159Y-26835D02*
X57765Y-26835D01*
X57765Y-26948D01*
X57784Y-26976D01*
X57803Y-26990D01*
X57841Y-27004D01*
X57897Y-27004D01*
X57934Y-26990D01*
X57953Y-26976D01*
X57972Y-26948D01*
X57972Y-26835D01*
X58122Y-27299D02*
X58141Y-27285D01*
X58159Y-27243D01*
X58159Y-27215D01*
X58141Y-27172D01*
X58103Y-27144D01*
X58066Y-27130D01*
X57991Y-27116D01*
X57934Y-27116D01*
X57859Y-27130D01*
X57822Y-27144D01*
X57784Y-27172D01*
X57765Y-27215D01*
X57765Y-27243D01*
X57784Y-27285D01*
X57803Y-27299D01*
X57765Y-27481D02*
X57765Y-27510D01*
X57784Y-27538D01*
X57803Y-27552D01*
X57841Y-27566D01*
X57916Y-27580D01*
X58009Y-27580D01*
X58084Y-27566D01*
X58122Y-27552D01*
X58141Y-27538D01*
X58159Y-27510D01*
X58159Y-27481D01*
X58141Y-27453D01*
X58122Y-27439D01*
X58084Y-27425D01*
X58009Y-27411D01*
X57916Y-27411D01*
X57841Y-27425D01*
X57803Y-27439D01*
X57784Y-27453D01*
X57765Y-27481D01*
X66865Y-26819D02*
X67259Y-26917D01*
X66865Y-27016D01*
X67109Y-27114D02*
X67109Y-27339D01*
G54D12*
X50158Y-33937D02*
X50167Y-34142D01*
X50194Y-34347D01*
X50239Y-34548D01*
X50301Y-34744D01*
X50380Y-34935D01*
X50475Y-35117D01*
X50586Y-35291D01*
X50711Y-35455D01*
X50850Y-35607D01*
X51002Y-35746D01*
X51166Y-35871D01*
X51340Y-35982D01*
X51522Y-36077D01*
X51713Y-36156D01*
X51909Y-36218D01*
X52110Y-36263D01*
X52315Y-36290D01*
X52520Y-36299D01*
X69843Y-26063D02*
X69843Y-33937D01*
X50157Y-33937D02*
X50157Y-26063D01*
X67480Y-36300D02*
X67685Y-36291D01*
X67890Y-36264D01*
X68091Y-36219D01*
X68288Y-36157D01*
X68478Y-36078D01*
X68661Y-35983D01*
X68835Y-35872D01*
X68998Y-35747D01*
X69150Y-35607D01*
X69290Y-35455D01*
X69415Y-35292D01*
X69526Y-35118D01*
X69621Y-34935D01*
X69700Y-34745D01*
X69762Y-34548D01*
X69807Y-34347D01*
X69834Y-34142D01*
X69843Y-33937D01*
X52520Y-23701D02*
X67480Y-23701D01*
X52520Y-36299D02*
X67480Y-36299D01*
X69842Y-26063D02*
X69833Y-25858D01*
X69806Y-25653D01*
X69761Y-25452D01*
X69699Y-25256D01*
X69620Y-25065D01*
X69525Y-24883D01*
X69414Y-24709D01*
X69289Y-24545D01*
X69150Y-24393D01*
X68998Y-24254D01*
X68834Y-24129D01*
X68661Y-24018D01*
X68478Y-23923D01*
X68287Y-23844D01*
X68091Y-23782D01*
X67890Y-23737D01*
X67685Y-23710D01*
X67480Y-23701D01*
X52520Y-23700D02*
X52315Y-23709D01*
X52110Y-23736D01*
X51909Y-23781D01*
X51712Y-23843D01*
X51522Y-23922D01*
X51339Y-24017D01*
X51165Y-24128D01*
X51002Y-24253D01*
X50850Y-24393D01*
X50710Y-24545D01*
X50585Y-24708D01*
X50474Y-24882D01*
X50379Y-25065D01*
X50300Y-25255D01*
X50238Y-25452D01*
X50193Y-25653D01*
X50166Y-25858D01*
X50157Y-26063D01*
%LPC*%
G54D14*
X55000Y-35250D03*
G54D15*
X56000Y-35250D03*
X57000Y-35250D03*
X58000Y-35250D03*
X59000Y-35250D03*
X60000Y-35250D03*
X68000Y-27250D03*
X52000Y-27250D03*
X51000Y-27250D03*
X62000Y-35250D03*
G54D16*
X66315Y-33307D03*
X64393Y-33307D03*
G54D17*
X52217Y-31024D03*
X52217Y-32756D03*
G54D15*
X67000Y-25250D03*
X66000Y-25250D03*
X65000Y-25250D03*
X64000Y-25250D03*
X63000Y-25250D03*
X62000Y-25250D03*
X61000Y-25250D03*
X60000Y-25250D03*
X59000Y-25250D03*
X58000Y-25250D03*
X57000Y-25250D03*
X56000Y-25250D03*
X55000Y-25250D03*
X54000Y-25250D03*
X53000Y-25250D03*
X67000Y-26250D03*
X66000Y-26250D03*
X65000Y-26250D03*
X64000Y-26250D03*
X63000Y-26250D03*
X62000Y-26250D03*
X61000Y-26250D03*
X60000Y-26250D03*
X59000Y-26250D03*
X58000Y-26250D03*
X57000Y-26250D03*
X56000Y-26250D03*
X55000Y-26250D03*
X54000Y-26250D03*
X53000Y-26250D03*
M02*
