G04 (created by PCBNEW-RS274X (2012-01-19 BZR 3256)-stable) date 5/11/2012 7:46:45 PM*
G01*
G70*
G90*
%MOIN*%
G04 Gerber Fmt 3.4, Leading zero omitted, Abs format*
%FSLAX34Y34*%
G04 APERTURE LIST*
%ADD10C,0.006000*%
%ADD11C,0.015000*%
G04 APERTURE END LIST*
G54D10*
G54D11*
X50158Y-33937D02*
X50167Y-34142D01*
X50194Y-34347D01*
X50239Y-34548D01*
X50301Y-34744D01*
X50380Y-34935D01*
X50475Y-35117D01*
X50586Y-35291D01*
X50711Y-35455D01*
X50850Y-35607D01*
X51002Y-35746D01*
X51166Y-35871D01*
X51340Y-35982D01*
X51522Y-36077D01*
X51713Y-36156D01*
X51909Y-36218D01*
X52110Y-36263D01*
X52315Y-36290D01*
X52520Y-36299D01*
X69843Y-26063D02*
X69843Y-33937D01*
X50157Y-33937D02*
X50157Y-26063D01*
X67480Y-36300D02*
X67685Y-36291D01*
X67890Y-36264D01*
X68091Y-36219D01*
X68288Y-36157D01*
X68478Y-36078D01*
X68661Y-35983D01*
X68835Y-35872D01*
X68998Y-35747D01*
X69150Y-35607D01*
X69290Y-35455D01*
X69415Y-35292D01*
X69526Y-35118D01*
X69621Y-34935D01*
X69700Y-34745D01*
X69762Y-34548D01*
X69807Y-34347D01*
X69834Y-34142D01*
X69843Y-33937D01*
X52520Y-23701D02*
X67480Y-23701D01*
X52520Y-36299D02*
X67480Y-36299D01*
X69842Y-26063D02*
X69833Y-25858D01*
X69806Y-25653D01*
X69761Y-25452D01*
X69699Y-25256D01*
X69620Y-25065D01*
X69525Y-24883D01*
X69414Y-24709D01*
X69289Y-24545D01*
X69150Y-24393D01*
X68998Y-24254D01*
X68834Y-24129D01*
X68661Y-24018D01*
X68478Y-23923D01*
X68287Y-23844D01*
X68091Y-23782D01*
X67890Y-23737D01*
X67685Y-23710D01*
X67480Y-23701D01*
X52520Y-23700D02*
X52315Y-23709D01*
X52110Y-23736D01*
X51909Y-23781D01*
X51712Y-23843D01*
X51522Y-23922D01*
X51339Y-24017D01*
X51165Y-24128D01*
X51002Y-24253D01*
X50850Y-24393D01*
X50710Y-24545D01*
X50585Y-24708D01*
X50474Y-24882D01*
X50379Y-25065D01*
X50300Y-25255D01*
X50238Y-25452D01*
X50193Y-25653D01*
X50166Y-25858D01*
X50157Y-26063D01*
M02*
