M48
INCH,TZ
T1C0.020
T2C0.044
%
G90
G05
T1
X051417Y-028465
X052441Y-028543
X053268Y-032913
X055039Y-028346
X056250Y-032756
X058800Y-030250
X058800Y-030750
X059550Y-034450
X059950Y-032850
X061500Y-027650
X062850Y-028750
X062850Y-029250
X064950Y-031400
X065750Y-031400
X068300Y-031000
T2
X051000Y-027250
X052000Y-027250
X053000Y-025250
X053000Y-026250
X054000Y-025250
X054000Y-026250
X055000Y-025250
X055000Y-026250
X055000Y-035250
X056000Y-025250
X056000Y-026250
X056000Y-035250
X057000Y-025250
X057000Y-026250
X057000Y-035250
X058000Y-025250
X058000Y-026250
X058000Y-035250
X059000Y-025250
X059000Y-026250
X059000Y-035250
X060000Y-025250
X060000Y-026250
X060000Y-035250
X061000Y-025250
X061000Y-026250
X062000Y-025250
X062000Y-026250
X062000Y-035250
X063000Y-025250
X063000Y-026250
X064000Y-025250
X064000Y-026250
X064393Y-033307
X065000Y-025250
X065000Y-026250
X066000Y-025250
X066000Y-026250
X066315Y-033307
X067000Y-025250
X067000Y-026250
X068000Y-027250
T0
M30
